<svg width="336" height="192" viewBox="0 0 336 192" fill="none" xmlns="http://www.w3.org/2000/svg">
<path d="M53.2172 79.7013C55.7172 79.7013 58.139 79.3263 60.488 78.5763C62.8317 77.8159 64.5557 77.0867 65.6547 76.3888L67.3005 75.2638L74.2588 89.1597C74.0349 89.342 73.7172 89.5763 73.3005 89.868C72.8942 90.1597 71.9515 90.6961 70.4672 91.4722C68.9932 92.2534 67.4151 92.9305 65.738 93.5138C64.0557 94.0972 61.8526 94.618 59.1338 95.0763C56.4099 95.5451 53.5974 95.7847 50.6963 95.7847C44.0297 95.7847 37.7067 94.1492 31.738 90.868C25.7797 87.592 20.9724 83.0867 17.3213 77.3472C13.6651 71.6128 11.8422 65.4097 11.8422 58.743C11.8422 53.7013 12.9099 48.8628 15.0505 44.2222C17.2015 39.5867 20.0557 35.6128 23.613 32.3055C27.1807 29.0034 31.3422 26.368 36.0922 24.4097C40.8422 22.4409 45.7067 21.4513 50.6963 21.4513C55.3317 21.4513 59.613 22.0034 63.5297 23.0972C67.4463 24.1961 70.2067 25.3003 71.8213 26.4097L74.2588 28.0555L67.3005 41.9722C66.8942 41.6128 66.2849 41.1909 65.4672 40.7013C64.6599 40.217 63.0401 39.5711 60.613 38.7638C58.1807 37.9461 55.7172 37.5347 53.2172 37.5347C49.2849 37.5347 45.7484 38.1753 42.613 39.4513C39.488 40.717 37.0088 42.3992 35.1755 44.493C33.3526 46.5763 31.9672 48.8211 31.0088 51.2222C30.0505 53.6284 29.5713 56.0763 29.5713 58.5763C29.5713 64.0242 31.613 68.9045 35.6963 73.2222C39.7901 77.5451 45.6338 79.7013 53.2172 79.7013Z" fill="white"/>
<path d="M80.3933 89.1805C75.4349 84.7638 72.9558 79.1128 72.9558 72.2222C72.9558 65.3211 75.5287 59.6545 80.6849 55.2222C85.8516 50.7951 92.2266 48.5763 99.8099 48.5763C107.294 48.5763 113.602 50.8055 118.727 55.2638C123.852 59.7222 126.414 65.3784 126.414 72.2222C126.414 79.0555 123.904 84.6961 118.893 89.1388C113.878 93.5711 107.518 95.7847 99.8099 95.7847C91.8204 95.7847 85.3516 93.5867 80.3933 89.1805ZM92.2891 64.6597C90.2995 66.6336 89.3099 69.1545 89.3099 72.2222C89.3099 75.2951 90.2579 77.8003 92.1641 79.743C94.0808 81.6753 96.6016 82.6388 99.7266 82.6388C102.737 82.6388 105.216 81.6597 107.164 79.7013C109.107 77.7326 110.081 75.2378 110.081 72.2222C110.081 69.1545 109.081 66.6336 107.081 64.6597C105.081 62.6909 102.628 61.7013 99.7266 61.7013C96.7683 61.7013 94.2891 62.6909 92.2891 64.6597Z" fill="white"/>
<path d="M153.03 61.1805C150.124 61.1805 147.634 62.2586 145.551 64.4097C143.467 66.5503 142.426 69.1284 142.426 72.1388C142.426 75.2117 143.467 77.8211 145.551 79.9722C147.634 82.1128 150.124 83.1805 153.03 83.1805C154.415 83.1805 155.728 83.0086 156.967 82.6597C158.217 82.3003 159.134 81.9461 159.717 81.5972L160.488 81.0763L165.717 91.7847C165.311 92.0763 164.743 92.4409 164.009 92.868C163.285 93.3003 161.634 93.8888 159.051 94.6388C156.478 95.3992 153.717 95.7847 150.759 95.7847C144.217 95.7847 138.467 93.4826 133.509 88.868C128.551 84.2586 126.071 78.7378 126.071 72.3055C126.071 65.8211 128.551 60.243 133.509 55.5763C138.467 50.9097 144.217 48.5763 150.759 48.5763C153.717 48.5763 156.436 48.9253 158.926 49.618C161.426 50.3159 163.196 51.0086 164.238 51.7013L165.717 52.743L160.488 63.2638C158.582 61.8784 156.097 61.1805 153.03 61.1805Z" fill="white"/>
<path d="M171.846 89.1805C166.887 84.7638 164.408 79.1128 164.408 72.2222C164.408 65.3211 166.981 59.6545 172.137 55.2222C177.304 50.7951 183.679 48.5763 191.262 48.5763C198.747 48.5763 205.054 50.8055 210.179 55.2638C215.304 59.7222 217.867 65.3784 217.867 72.2222C217.867 79.0555 215.356 84.6961 210.346 89.1388C205.33 93.5711 198.971 95.7847 191.262 95.7847C183.273 95.7847 176.804 93.5867 171.846 89.1805ZM183.742 64.6597C181.752 66.6336 180.762 69.1545 180.762 72.2222C180.762 75.2951 181.71 77.8003 183.617 79.743C185.533 81.6753 188.054 82.6388 191.179 82.6388C194.19 82.6388 196.669 81.6597 198.617 79.7013C200.559 77.7326 201.533 75.2378 201.533 72.2222C201.533 69.1545 200.533 66.6336 198.533 64.6597C196.533 62.6909 194.08 61.7013 191.179 61.7013C188.221 61.7013 185.742 62.6909 183.742 64.6597Z" fill="white"/>
<path d="M224.961 89.1805C220.003 84.7638 217.524 79.1128 217.524 72.2222C217.524 65.3211 220.097 59.6545 225.253 55.2222C230.42 50.7951 236.795 48.5763 244.378 48.5763C251.862 48.5763 258.17 50.8055 263.295 55.2638C268.42 59.7222 270.982 65.3784 270.982 72.2222C270.982 79.0555 268.472 84.6961 263.461 89.1388C258.446 93.5711 252.086 95.7847 244.378 95.7847C236.389 95.7847 229.92 93.5867 224.961 89.1805ZM236.857 64.6597C234.868 66.6336 233.878 69.1545 233.878 72.2222C233.878 75.2951 234.826 77.8003 236.732 79.743C238.649 81.6753 241.17 82.6388 244.295 82.6388C247.305 82.6388 249.784 81.6597 251.732 79.7013C253.675 77.7326 254.649 75.2378 254.649 72.2222C254.649 69.1545 253.649 66.6336 251.649 64.6597C249.649 62.6909 247.196 61.7013 244.295 61.7013C241.336 61.7013 238.857 62.6909 236.857 64.6597Z" fill="white"/>
<path d="M273.848 94.4722V49.868H289.244V54.5763H289.41C293.41 50.5763 297.671 48.5763 302.202 48.5763C304.395 48.5763 306.577 48.868 308.744 49.4513C310.921 50.0242 313.015 50.9201 315.015 52.1388C317.015 53.3472 318.64 55.0711 319.89 57.3055C321.14 59.5451 321.765 62.1388 321.765 65.0972V94.4722H306.369V69.2638C306.369 66.9461 305.624 64.9201 304.14 63.1805C302.666 61.4461 300.744 60.5763 298.369 60.5763C296.046 60.5763 293.942 61.4722 292.056 63.2638C290.181 65.0555 289.244 67.0555 289.244 69.2638V94.4722H273.848Z" fill="white"/>
<mask id="mask0_181_153" style="mask-type:luminance" maskUnits="userSpaceOnUse" x="190" y="60" width="62" height="127">
<path d="M190.667 60H252V186.667H190.667V60Z" fill="white"/>
</mask>
<g mask="url(#mask0_181_153)">
<mask id="mask1_181_153" style="mask-type:luminance" maskUnits="userSpaceOnUse" x="152" y="61" width="138" height="137">
<path d="M152.698 125.781L217.307 61.1771L289.516 133.385L224.906 197.995L152.698 125.781Z" fill="white"/>
</mask>
<g mask="url(#mask1_181_153)">
<mask id="mask2_181_153" style="mask-type:luminance" maskUnits="userSpaceOnUse" x="123" y="3" width="195" height="195">
<path d="M123.776 96.8646L216.891 3.75L317.599 104.464L224.49 197.578L123.776 96.8646Z" fill="white"/>
</mask>
<g mask="url(#mask2_181_153)">
<path d="M211.682 64.8854L211.198 132.182C209.495 132.438 208.188 133.901 208.188 135.677V137.74C208.188 139.49 209.464 140.943 211.135 141.224L210.844 181.953C210.844 183.906 212.427 185.49 214.38 185.49H219.682C221.635 185.49 223.219 183.906 223.219 181.953L223.151 172.224C223.193 171.74 223.396 171.271 224.109 171.193H235.38C236.354 171.193 237.146 170.401 237.146 169.427V167.214H243.339V169.427C243.339 170.401 243.724 171.193 244.203 171.193H249.839C250.318 171.193 250.708 170.401 250.708 169.427V161.906H246.875V155.13H250.708V147.615C250.708 146.635 250.318 145.844 249.839 145.844H244.203C243.724 145.844 243.339 146.635 243.333 147.615V149.823H237.146V147.615C237.146 146.635 236.354 145.844 235.38 145.844H224.12C223.214 145.844 222.995 145.307 222.953 144.771L222.927 141.224C224.599 140.943 225.875 139.49 225.875 137.74V135.677C225.875 133.901 224.568 132.438 222.865 132.182L222.38 64.4948C222.531 61.5729 223.875 60.1458 225.24 59.6511C235.375 56.9531 242.672 49.4115 242.672 40.5208C242.672 29.3698 231.193 20.3333 217.031 20.3333C202.87 20.3333 191.385 29.3698 191.385 40.5208C191.385 49.3958 198.661 56.9271 208.771 59.6354C210.214 60.1458 211.63 61.6771 211.682 64.8854ZM208.776 50.3958C203.328 50.3958 198.906 45.9792 198.906 40.5208C198.906 35.0677 203.328 30.6458 208.776 30.6511C211.151 30.6511 213.323 31.4844 215.026 32.8802C215.719 33.599 216.161 35.1927 217.031 35.1927C217.896 35.1927 218.339 33.6146 219.026 32.8906C220.729 31.4896 222.906 30.6511 225.281 30.6511C230.74 30.6511 235.161 35.0677 235.161 40.5208C235.161 45.9792 230.74 50.3958 225.281 50.3958C222.901 50.3958 220.714 49.5521 219.01 48.1458C218.333 47.4115 217.891 45.8594 217.031 45.8594C216.167 45.8594 215.724 47.4323 215.036 48.1563C213.333 49.5573 211.156 50.3958 208.776 50.3958Z" fill="white"/>
</g>
</g>
</g>
<mask id="mask3_181_153" style="mask-type:luminance" maskUnits="userSpaceOnUse" x="203" y="37" width="28" height="28">
<path d="M203.286 37.3281H230.161V64.2031H203.286V37.3281Z" fill="white"/>
</mask>
<g mask="url(#mask3_181_153)">
<mask id="mask4_181_153" style="mask-type:luminance" maskUnits="userSpaceOnUse" x="203" y="37" width="28" height="28">
<path d="M216.87 37.3281C209.37 37.3281 203.286 43.4115 203.286 50.9115C203.286 58.4167 209.37 64.4948 216.87 64.4948C224.37 64.4948 230.453 58.4167 230.453 50.9115C230.453 43.4115 224.37 37.3281 216.87 37.3281Z" fill="white"/>
</mask>
<g mask="url(#mask4_181_153)">
<path d="M216.87 37.3281C209.37 37.3281 203.286 43.4115 203.286 50.9115C203.286 58.4167 209.37 64.4948 216.87 64.4948C224.37 64.4948 230.453 58.4167 230.453 50.9115C230.453 43.4115 224.37 37.3281 216.87 37.3281Z" stroke="white" stroke-width="14"/>
</g>
</g>
<path d="M31.6345 131.409C33.3365 131.409 34.7795 131.181 35.9635 130.724C37.1598 130.268 38.0047 129.824 38.498 129.392L39.4045 131.187C38.8742 131.68 37.9245 132.18 36.5555 132.685C35.1988 133.191 33.5585 133.444 31.6345 133.444C29.8338 133.444 28.1688 133.123 26.6395 132.482C25.1225 131.828 23.7967 130.928 22.662 129.781C21.5273 128.622 20.6455 127.283 20.0165 125.766C19.3875 124.237 19.073 122.591 19.073 120.827C19.073 119.063 19.3813 117.417 19.998 115.887C20.627 114.346 21.5088 112.995 22.6435 111.836C23.7782 110.677 25.1102 109.77 26.6395 109.116C28.1688 108.463 29.8338 108.136 31.6345 108.136C33.5585 108.136 35.1988 108.389 36.5555 108.894C37.9245 109.4 38.8742 109.9 39.4045 110.393L38.498 112.188C38.0047 111.756 37.1598 111.312 35.9635 110.855C34.7795 110.399 33.3365 110.171 31.6345 110.171C30.2038 110.171 28.8657 110.43 27.62 110.948C26.3743 111.454 25.2767 112.175 24.327 113.112C23.3773 114.05 22.6312 115.172 22.0885 116.479C21.5582 117.774 21.293 119.205 21.293 120.771C21.293 122.35 21.5582 123.793 22.0885 125.1C22.6312 126.408 23.3773 127.53 24.327 128.467C25.2767 129.405 26.3743 130.132 27.62 130.65C28.8657 131.156 30.2038 131.409 31.6345 131.409ZM49.9856 133.444C48.4686 133.444 47.1181 133.093 45.9341 132.39C44.7625 131.674 43.8375 130.712 43.1591 129.503C42.4931 128.295 42.1601 126.944 42.1601 125.452C42.1601 123.96 42.4931 122.603 43.1591 121.382C43.8375 120.149 44.7625 119.174 45.9341 118.459C47.1181 117.731 48.4686 117.367 49.9856 117.367C51.5026 117.367 52.8408 117.731 54.0001 118.459C55.1718 119.174 56.0906 120.149 56.7566 121.382C57.4226 122.603 57.7556 123.96 57.7556 125.452C57.7556 126.944 57.4226 128.295 56.7566 129.503C56.0906 130.712 55.1718 131.674 54.0001 132.39C52.8408 133.093 51.5026 133.444 49.9856 133.444ZM49.9856 131.538C51.1326 131.538 52.1316 131.273 52.9826 130.743C53.846 130.213 54.512 129.485 54.9806 128.56C55.4616 127.635 55.7021 126.599 55.7021 125.452C55.7021 124.293 55.4616 123.25 54.9806 122.325C54.512 121.388 53.846 120.648 52.9826 120.105C52.1316 119.55 51.1326 119.273 49.9856 119.273C48.8263 119.273 47.815 119.55 46.9516 120.105C46.0883 120.648 45.4161 121.388 44.9351 122.325C44.4541 123.25 44.2136 124.293 44.2136 125.452C44.2136 126.599 44.4541 127.635 44.9351 128.56C45.4161 129.485 46.0883 130.213 46.9516 130.743C47.815 131.273 48.8263 131.538 49.9856 131.538ZM69.1568 117.367C70.1188 117.367 71.0562 117.577 71.9688 117.996C72.8815 118.403 73.6338 119.057 74.2258 119.957C74.8178 120.845 75.1138 121.999 75.1138 123.417V133H72.9678V123.916C72.9678 122.227 72.5732 121.012 71.7838 120.272C70.9945 119.52 69.9832 119.143 68.7498 119.143C67.9358 119.143 67.1465 119.378 66.3818 119.846C65.6295 120.315 65.0067 120.956 64.5133 121.77C64.0323 122.584 63.7918 123.497 63.7918 124.508V133H61.6828V117.811H63.7918V120.734C63.8782 120.303 64.168 119.828 64.6613 119.31C65.167 118.78 65.8083 118.323 66.5853 117.941C67.3747 117.559 68.2318 117.367 69.1568 117.367ZM86.4428 131.594C87.5281 131.594 88.3976 131.427 89.0513 131.094C89.7049 130.749 90.1058 130.509 90.2538 130.373L91.3638 132.001C91.2651 132.075 90.9876 132.235 90.5313 132.482C90.0749 132.716 89.4829 132.932 88.7553 133.13C88.0399 133.339 87.2259 133.444 86.3133 133.444C85.0923 133.444 83.9144 133.142 82.7798 132.537C81.6451 131.933 80.7078 131.033 79.9678 129.836C79.2401 128.64 78.8763 127.16 78.8763 125.396C78.8763 123.62 79.2401 122.14 79.9678 120.956C80.7078 119.76 81.6451 118.866 82.7798 118.274C83.9144 117.67 85.0923 117.367 86.3133 117.367C87.2259 117.367 88.0276 117.478 88.7183 117.7C89.4089 117.922 89.9763 118.169 90.4203 118.44C90.8643 118.712 91.1418 118.909 91.2528 119.032L90.1613 120.642C90.0503 120.543 89.8406 120.383 89.5323 120.161C89.2363 119.927 88.8293 119.711 88.3113 119.513C87.7933 119.316 87.1704 119.217 86.4428 119.217C85.5671 119.217 84.7038 119.458 83.8528 119.939C83.0018 120.42 82.2988 121.123 81.7438 122.048C81.2011 122.961 80.9298 124.077 80.9298 125.396C80.9298 126.716 81.2011 127.838 81.7438 128.763C82.2988 129.688 83.0018 130.391 83.8528 130.872C84.7038 131.353 85.5671 131.594 86.4428 131.594ZM95.2757 133V117.811H97.3662V133H95.2757ZM96.3487 111.651C95.9047 111.651 95.5223 111.497 95.2017 111.188C94.8933 110.868 94.7392 110.485 94.7392 110.041C94.7392 109.585 94.8995 109.203 95.2202 108.894C95.5408 108.574 95.917 108.413 96.3487 108.413C96.6447 108.413 96.916 108.487 97.1627 108.635C97.4217 108.783 97.6252 108.981 97.7732 109.227C97.9335 109.462 98.0137 109.733 98.0137 110.041C98.0137 110.485 97.8472 110.868 97.5142 111.188C97.1935 111.497 96.805 111.651 96.3487 111.651ZM103.743 125.655C103.755 126.716 103.965 127.709 104.372 128.634C104.791 129.559 105.42 130.305 106.259 130.872C107.098 131.44 108.152 131.723 109.422 131.723C110.458 131.723 111.322 131.557 112.012 131.224C112.715 130.879 113.27 130.484 113.677 130.04C114.097 129.584 114.393 129.177 114.565 128.819L115.879 130.114C115.423 130.817 114.892 131.421 114.288 131.927C113.696 132.42 112.993 132.796 112.179 133.056C111.377 133.315 110.421 133.444 109.311 133.444C107.696 133.444 106.314 133.086 105.167 132.371C104.033 131.643 103.163 130.657 102.559 129.411C101.967 128.165 101.671 126.765 101.671 125.211C101.671 123.731 101.967 122.399 102.559 121.215C103.151 120.031 104.002 119.094 105.112 118.403C106.234 117.713 107.585 117.367 109.163 117.367C110.594 117.367 111.834 117.682 112.882 118.311C113.943 118.94 114.763 119.816 115.342 120.938C115.934 122.048 116.23 123.343 116.23 124.823C116.23 124.934 116.224 125.076 116.212 125.248C116.212 125.421 116.206 125.557 116.193 125.655H103.743ZM114.121 123.898C114.109 123.232 113.943 122.529 113.622 121.789C113.314 121.037 112.802 120.401 112.086 119.883C111.383 119.353 110.415 119.088 109.182 119.088C107.899 119.088 106.876 119.347 106.111 119.865C105.359 120.371 104.81 120.993 104.464 121.733C104.119 122.473 103.909 123.195 103.835 123.898H114.121ZM122.309 133H120.237V117.811H122.309V120.549H122.217C122.266 120.229 122.488 119.822 122.883 119.328C123.29 118.823 123.839 118.373 124.529 117.978C125.22 117.571 126.034 117.367 126.971 117.367C127.687 117.367 128.297 117.46 128.803 117.645C129.321 117.818 129.679 117.996 129.876 118.181L128.951 119.976C128.791 119.816 128.488 119.655 128.044 119.495C127.613 119.335 127.089 119.254 126.472 119.254C125.621 119.254 124.881 119.538 124.252 120.105C123.635 120.673 123.154 121.351 122.809 122.14C122.476 122.917 122.309 123.633 122.309 124.286V133ZM138.878 141.103C137.62 141.103 136.522 140.967 135.585 140.696C134.647 140.425 133.858 140.061 133.217 139.605C132.588 139.161 132.1 138.68 131.755 138.162L133.309 136.793C133.531 137.101 133.839 137.446 134.234 137.829C134.629 138.211 135.19 138.538 135.918 138.809C136.645 139.093 137.613 139.235 138.822 139.235C140.031 139.235 141.042 138.963 141.856 138.421C142.682 137.878 143.305 137.156 143.725 136.256C144.144 135.356 144.354 134.363 144.354 133.278V132.741H146.407V133.444C146.407 135.097 146.068 136.49 145.39 137.625C144.724 138.772 143.817 139.635 142.67 140.215C141.535 140.807 140.271 141.103 138.878 141.103ZM144.354 133V129.818C144.267 130.151 143.977 130.607 143.484 131.187C143.003 131.767 142.331 132.291 141.468 132.759C140.617 133.216 139.605 133.444 138.434 133.444C137.065 133.444 135.8 133.129 134.641 132.5C133.494 131.859 132.569 130.94 131.866 129.744C131.175 128.535 130.83 127.092 130.83 125.415C130.83 123.738 131.175 122.301 131.866 121.104C132.569 119.896 133.494 118.971 134.641 118.329C135.8 117.688 137.065 117.367 138.434 117.367C139.605 117.367 140.617 117.589 141.468 118.033C142.319 118.465 142.991 118.965 143.484 119.532C143.99 120.099 144.273 120.574 144.335 120.956V117.811H146.407V133H144.354ZM132.921 125.415C132.921 126.698 133.198 127.801 133.753 128.726C134.308 129.651 135.023 130.361 135.899 130.854C136.787 131.347 137.718 131.594 138.693 131.594C139.766 131.594 140.721 131.341 141.56 130.835C142.399 130.33 143.059 129.614 143.54 128.689C144.033 127.764 144.28 126.673 144.28 125.415C144.28 124.157 144.033 123.065 143.54 122.14C143.059 121.215 142.399 120.5 141.56 119.994C140.721 119.476 139.766 119.217 138.693 119.217C137.718 119.217 136.787 119.47 135.899 119.976C135.023 120.469 134.308 121.178 133.753 122.103C133.198 123.028 132.921 124.132 132.921 125.415ZM152.161 125.655C152.173 126.716 152.383 127.709 152.79 128.634C153.209 129.559 153.838 130.305 154.677 130.872C155.516 131.44 156.57 131.723 157.84 131.723C158.876 131.723 159.74 131.557 160.43 131.224C161.133 130.879 161.688 130.484 162.095 130.04C162.515 129.584 162.811 129.177 162.983 128.819L164.297 130.114C163.841 130.817 163.31 131.421 162.706 131.927C162.114 132.42 161.411 132.796 160.597 133.056C159.795 133.315 158.839 133.444 157.729 133.444C156.114 133.444 154.732 133.086 153.585 132.371C152.451 131.643 151.581 130.657 150.977 129.411C150.385 128.165 150.089 126.765 150.089 125.211C150.089 123.731 150.385 122.399 150.977 121.215C151.569 120.031 152.42 119.094 153.53 118.403C154.652 117.713 156.003 117.367 157.581 117.367C159.012 117.367 160.252 117.682 161.3 118.311C162.361 118.94 163.181 119.816 163.76 120.938C164.352 122.048 164.648 123.343 164.648 124.823C164.648 124.934 164.642 125.076 164.63 125.248C164.63 125.421 164.624 125.557 164.611 125.655H152.161ZM162.539 123.898C162.527 123.232 162.361 122.529 162.04 121.789C161.732 121.037 161.22 120.401 160.504 119.883C159.801 119.353 158.833 119.088 157.6 119.088C156.317 119.088 155.294 119.347 154.529 119.865C153.777 120.371 153.228 120.993 152.882 121.733C152.537 122.473 152.327 123.195 152.253 123.898H162.539ZM170.727 133H168.655V117.811H170.727V120.549H170.635C170.684 120.229 170.906 119.822 171.301 119.328C171.708 118.823 172.257 118.373 172.947 117.978C173.638 117.571 174.452 117.367 175.389 117.367C176.105 117.367 176.715 117.46 177.221 117.645C177.739 117.818 178.096 117.996 178.294 118.181L177.369 119.976C177.208 119.816 176.906 119.655 176.462 119.495C176.031 119.335 175.506 119.254 174.89 119.254C174.039 119.254 173.299 119.538 172.67 120.105C172.053 120.673 171.572 121.351 171.227 122.14C170.894 122.917 170.727 123.633 170.727 124.286V133ZM181.055 133V117.811H183.145V133H181.055ZM182.128 111.651C181.684 111.651 181.302 111.497 180.981 111.188C180.673 110.868 180.518 110.485 180.518 110.041C180.518 109.585 180.679 109.203 180.999 108.894C181.32 108.574 181.696 108.413 182.128 108.413C182.424 108.413 182.695 108.487 182.942 108.635C183.201 108.783 183.404 108.981 183.552 109.227C183.713 109.462 183.793 109.733 183.793 110.041C183.793 110.485 183.626 110.868 183.293 111.188C182.973 111.497 182.584 111.651 182.128 111.651ZM189.522 125.655C189.535 126.716 189.744 127.709 190.151 128.634C190.571 129.559 191.2 130.305 192.038 130.872C192.877 131.44 193.931 131.723 195.202 131.723C196.238 131.723 197.101 131.557 197.792 131.224C198.495 130.879 199.05 130.484 199.457 130.04C199.876 129.584 200.172 129.177 200.345 128.819L201.658 130.114C201.202 130.817 200.672 131.421 200.067 131.927C199.475 132.42 198.772 132.796 197.958 133.056C197.157 133.315 196.201 133.444 195.091 133.444C193.475 133.444 192.094 133.086 190.947 132.371C189.812 131.643 188.943 130.657 188.338 129.411C187.746 128.165 187.45 126.765 187.45 125.211C187.45 123.731 187.746 122.399 188.338 121.215C188.93 120.031 189.781 119.094 190.891 118.403C192.014 117.713 193.364 117.367 194.943 117.367C196.373 117.367 197.613 117.682 198.661 118.311C199.722 118.94 200.542 119.816 201.122 120.938C201.714 122.048 202.01 123.343 202.01 124.823C202.01 124.934 202.004 125.076 201.991 125.248C201.991 125.421 201.985 125.557 201.973 125.655H189.522ZM199.901 123.898C199.888 123.232 199.722 122.529 199.401 121.789C199.093 121.037 198.581 120.401 197.866 119.883C197.163 119.353 196.195 119.088 194.961 119.088C193.679 119.088 192.655 119.347 191.89 119.865C191.138 120.371 190.589 120.993 190.244 121.733C189.898 122.473 189.689 123.195 189.615 123.898H199.901Z" fill="#F6DEBE"/>
<path d="M30.065 159.395H40.01V160.385C40.01 161.755 39.765 163.04 39.275 164.24C38.795 165.44 38.12 166.5 37.25 167.42C36.38 168.34 35.36 169.06 34.19 169.58C33.03 170.1 31.765 170.36 30.395 170.36C28.995 170.36 27.705 170.09 26.525 169.55C25.345 169.01 24.32 168.265 23.45 167.315C22.58 166.365 21.9 165.275 21.41 164.045C20.93 162.805 20.69 161.485 20.69 160.085C20.69 158.695 20.93 157.385 21.41 156.155C21.9 154.915 22.58 153.82 23.45 152.87C24.32 151.92 25.345 151.18 26.525 150.65C27.705 150.11 28.995 149.84 30.395 149.84C31.245 149.84 32.045 149.935 32.795 150.125C33.545 150.315 34.24 150.585 34.88 150.935C35.52 151.285 36.1 151.695 36.62 152.165C37.15 152.635 37.61 153.145 38 153.695L36.575 154.58C35.885 153.65 35.015 152.9 33.965 152.33C32.915 151.76 31.725 151.475 30.395 151.475C29.245 151.475 28.18 151.705 27.2 152.165C26.23 152.615 25.385 153.235 24.665 154.025C23.955 154.815 23.405 155.73 23.015 156.77C22.625 157.81 22.43 158.915 22.43 160.085C22.43 161.255 22.625 162.36 23.015 163.4C23.405 164.44 23.955 165.36 24.665 166.16C25.385 166.96 26.23 167.59 27.2 168.05C28.18 168.5 29.245 168.725 30.395 168.725C31.505 168.725 32.525 168.52 33.455 168.11C34.395 167.7 35.21 167.135 35.9 166.415C36.59 165.685 37.135 164.845 37.535 163.895C37.935 162.945 38.16 161.93 38.21 160.85H30.065V159.395ZM53.1324 170V167.42C53.0624 167.69 52.8274 168.06 52.4274 168.53C52.0374 169 51.4924 169.425 50.7924 169.805C50.1024 170.175 49.2824 170.36 48.3324 170.36C47.2224 170.36 46.1974 170.105 45.2574 169.595C44.3274 169.075 43.5774 168.33 43.0074 167.36C42.4474 166.38 42.1674 165.21 42.1674 163.85C42.1674 162.49 42.4474 161.325 43.0074 160.355C43.5774 159.375 44.3274 158.625 45.2574 158.105C46.1974 157.585 47.2224 157.325 48.3324 157.325C49.2824 157.325 50.1024 157.505 50.7924 157.865C51.4824 158.215 52.0274 158.62 52.4274 159.08C52.8374 159.54 53.0674 159.925 53.1174 160.235V157.685H54.7974V170H53.1324ZM43.8624 163.85C43.8624 164.89 44.0874 165.785 44.5374 166.535C44.9874 167.285 45.5674 167.86 46.2774 168.26C46.9974 168.66 47.7524 168.86 48.5424 168.86C49.4124 168.86 50.1874 168.655 50.8674 168.245C51.5474 167.835 52.0824 167.255 52.4724 166.505C52.8724 165.755 53.0724 164.87 53.0724 163.85C53.0724 162.83 52.8724 161.945 52.4724 161.195C52.0824 160.445 51.5474 159.865 50.8674 159.455C50.1874 159.035 49.4124 158.825 48.5424 158.825C47.7524 158.825 46.9974 159.03 46.2774 159.44C45.5674 159.84 44.9874 160.415 44.5374 161.165C44.0874 161.915 43.8624 162.81 43.8624 163.85ZM60.3955 170H58.7155V157.685H60.3955V159.905H60.3205C60.3605 159.645 60.5405 159.315 60.8605 158.915C61.1905 158.505 61.6355 158.14 62.1955 157.82C62.7555 157.49 63.4155 157.325 64.1755 157.325C64.7555 157.325 65.2505 157.4 65.6605 157.55C66.0805 157.69 66.3705 157.835 66.5305 157.985L65.7805 159.44C65.6505 159.31 65.4055 159.18 65.0455 159.05C64.6955 158.92 64.2705 158.855 63.7705 158.855C63.0805 158.855 62.4805 159.085 61.9705 159.545C61.4705 160.005 61.0805 160.555 60.8005 161.195C60.5305 161.825 60.3955 162.405 60.3955 162.935V170ZM73.6655 170.36C72.5555 170.36 71.5505 170.105 70.6505 169.595C69.7505 169.075 69.0355 168.33 68.5055 167.36C67.9755 166.38 67.7105 165.21 67.7105 163.85C67.7105 162.49 67.9755 161.325 68.5055 160.355C69.0355 159.375 69.7505 158.625 70.6505 158.105C71.5505 157.585 72.5555 157.325 73.6655 157.325C74.6155 157.325 75.4555 157.5 76.1855 157.85C76.9155 158.2 77.4955 158.605 77.9255 159.065C78.3555 159.515 78.5905 159.905 78.6305 160.235V149.36H80.3705V170H78.6755V167.42C78.6055 167.74 78.3505 168.13 77.9105 168.59C77.4805 169.05 76.9005 169.46 76.1705 169.82C75.4405 170.18 74.6055 170.36 73.6655 170.36ZM73.8755 168.86C74.7455 168.86 75.5405 168.655 76.2605 168.245C76.9805 167.835 77.5555 167.255 77.9855 166.505C78.4155 165.755 78.6305 164.87 78.6305 163.85C78.6305 162.83 78.4155 161.945 77.9855 161.195C77.5555 160.445 76.9805 159.865 76.2605 159.455C75.5405 159.035 74.7455 158.825 73.8755 158.825C73.0955 158.825 72.3655 159.03 71.6855 159.44C71.0155 159.84 70.4705 160.415 70.0505 161.165C69.6305 161.915 69.4205 162.81 69.4205 163.85C69.4205 164.89 69.6305 165.785 70.0505 166.535C70.4705 167.285 71.0155 167.86 71.6855 168.26C72.3655 168.66 73.0955 168.86 73.8755 168.86ZM90.6005 163.925V162.41H98.3255V163.925H90.6005ZM115.438 150.2H117.283L124.378 170H122.593L120.748 164.87H111.988L110.128 170H108.313L115.438 150.2ZM112.498 163.295H120.253L116.383 152.315H116.338L112.498 163.295ZM128.452 170H126.772V157.685H128.452V159.905H128.377C128.417 159.645 128.597 159.315 128.917 158.915C129.247 158.505 129.692 158.14 130.252 157.82C130.812 157.49 131.472 157.325 132.232 157.325C132.812 157.325 133.307 157.4 133.717 157.55C134.137 157.69 134.427 157.835 134.587 157.985L133.837 159.44C133.707 159.31 133.462 159.18 133.102 159.05C132.752 158.92 132.327 158.855 131.827 158.855C131.137 158.855 130.537 159.085 130.027 159.545C129.527 160.005 129.137 160.555 128.857 161.195C128.587 161.825 128.452 162.405 128.452 162.935V170ZM141.722 170.36C140.612 170.36 139.607 170.105 138.707 169.595C137.807 169.075 137.092 168.33 136.562 167.36C136.032 166.38 135.767 165.21 135.767 163.85C135.767 162.49 136.032 161.325 136.562 160.355C137.092 159.375 137.807 158.625 138.707 158.105C139.607 157.585 140.612 157.325 141.722 157.325C142.672 157.325 143.512 157.5 144.242 157.85C144.972 158.2 145.552 158.605 145.982 159.065C146.412 159.515 146.647 159.905 146.687 160.235V149.36H148.427V170H146.732V167.42C146.662 167.74 146.407 168.13 145.967 168.59C145.537 169.05 144.957 169.46 144.227 169.82C143.497 170.18 142.662 170.36 141.722 170.36ZM141.932 168.86C142.802 168.86 143.597 168.655 144.317 168.245C145.037 167.835 145.612 167.255 146.042 166.505C146.472 165.755 146.687 164.87 146.687 163.85C146.687 162.83 146.472 161.945 146.042 161.195C145.612 160.445 145.037 159.865 144.317 159.455C143.597 159.035 142.802 158.825 141.932 158.825C141.152 158.825 140.422 159.03 139.742 159.44C139.072 159.84 138.527 160.415 138.107 161.165C137.687 161.915 137.477 162.81 137.477 163.85C137.477 164.89 137.687 165.785 138.107 166.535C138.527 167.285 139.072 167.86 139.742 168.26C140.422 168.66 141.152 168.86 141.932 168.86ZM152.217 164.045C152.227 164.905 152.397 165.71 152.727 166.46C153.067 167.21 153.577 167.815 154.257 168.275C154.937 168.735 155.792 168.965 156.822 168.965C157.662 168.965 158.362 168.83 158.922 168.56C159.492 168.28 159.942 167.96 160.272 167.6C160.612 167.23 160.852 166.9 160.992 166.61L162.057 167.66C161.687 168.23 161.257 168.72 160.767 169.13C160.287 169.53 159.717 169.835 159.057 170.045C158.407 170.255 157.632 170.36 156.732 170.36C155.422 170.36 154.302 170.07 153.372 169.49C152.452 168.9 151.747 168.1 151.257 167.09C150.777 166.08 150.537 164.945 150.537 163.685C150.537 162.485 150.777 161.405 151.257 160.445C151.737 159.485 152.427 158.725 153.327 158.165C154.237 157.605 155.332 157.325 156.612 157.325C157.772 157.325 158.777 157.58 159.627 158.09C160.487 158.6 161.152 159.31 161.622 160.22C162.102 161.12 162.342 162.17 162.342 163.37C162.342 163.46 162.337 163.575 162.327 163.715C162.327 163.855 162.322 163.965 162.312 164.045H152.217ZM160.632 162.62C160.622 162.08 160.487 161.51 160.227 160.91C159.977 160.3 159.562 159.785 158.982 159.365C158.412 158.935 157.627 158.72 156.627 158.72C155.587 158.72 154.757 158.93 154.137 159.35C153.527 159.76 153.082 160.265 152.802 160.865C152.522 161.465 152.352 162.05 152.292 162.62H160.632ZM158.877 155.165L154.032 152.09L155.187 150.635L159.627 154.205L158.877 155.165ZM170.885 168.86C171.765 168.86 172.47 168.725 173 168.455C173.53 168.175 173.855 167.98 173.975 167.87L174.875 169.19C174.795 169.25 174.57 169.38 174.2 169.58C173.83 169.77 173.35 169.945 172.76 170.105C172.18 170.275 171.52 170.36 170.78 170.36C169.79 170.36 168.835 170.115 167.915 169.625C166.995 169.135 166.235 168.405 165.635 167.435C165.045 166.465 164.75 165.265 164.75 163.835C164.75 162.395 165.045 161.195 165.635 160.235C166.235 159.265 166.995 158.54 167.915 158.06C168.835 157.57 169.79 157.325 170.78 157.325C171.52 157.325 172.17 157.415 172.73 157.595C173.29 157.775 173.75 157.975 174.11 158.195C174.47 158.415 174.695 158.575 174.785 158.675L173.9 159.98C173.81 159.9 173.64 159.77 173.39 159.59C173.15 159.4 172.82 159.225 172.4 159.065C171.98 158.905 171.475 158.825 170.885 158.825C170.175 158.825 169.475 159.02 168.785 159.41C168.095 159.8 167.525 160.37 167.075 161.12C166.635 161.86 166.415 162.765 166.415 163.835C166.415 164.905 166.635 165.815 167.075 166.565C167.525 167.315 168.095 167.885 168.785 168.275C169.475 168.665 170.175 168.86 170.885 168.86ZM184 157.325C184.77 157.325 185.525 157.495 186.265 157.835C187.005 158.165 187.615 158.695 188.095 159.425C188.575 160.145 188.815 161.08 188.815 162.23V170H187.075V162.635C187.075 161.265 186.755 160.28 186.115 159.68C185.485 159.07 184.675 158.765 183.685 158.765C183.015 158.765 182.37 158.955 181.75 159.335C181.14 159.715 180.635 160.235 180.235 160.895C179.835 161.555 179.635 162.295 179.635 163.115V170H177.895V149.36H179.635V160.055C179.705 159.705 179.94 159.32 180.34 158.9C180.75 158.47 181.27 158.1 181.9 157.79C182.54 157.48 183.24 157.325 184 157.325ZM193.496 164.045C193.506 164.905 193.676 165.71 194.006 166.46C194.346 167.21 194.856 167.815 195.536 168.275C196.216 168.735 197.071 168.965 198.101 168.965C198.941 168.965 199.641 168.83 200.201 168.56C200.771 168.28 201.221 167.96 201.551 167.6C201.891 167.23 202.131 166.9 202.271 166.61L203.336 167.66C202.966 168.23 202.536 168.72 202.046 169.13C201.566 169.53 200.996 169.835 200.336 170.045C199.686 170.255 198.911 170.36 198.011 170.36C196.701 170.36 195.581 170.07 194.651 169.49C193.731 168.9 193.026 168.1 192.536 167.09C192.056 166.08 191.816 164.945 191.816 163.685C191.816 162.485 192.056 161.405 192.536 160.445C193.016 159.485 193.706 158.725 194.606 158.165C195.516 157.605 196.611 157.325 197.891 157.325C199.051 157.325 200.056 157.58 200.906 158.09C201.766 158.6 202.431 159.31 202.901 160.22C203.381 161.12 203.621 162.17 203.621 163.37C203.621 163.46 203.616 163.575 203.606 163.715C203.606 163.855 203.601 163.965 203.591 164.045H193.496ZM201.911 162.62C201.901 162.08 201.766 161.51 201.506 160.91C201.256 160.3 200.841 159.785 200.261 159.365C199.691 158.935 198.906 158.72 197.906 158.72C196.866 158.72 196.036 158.93 195.416 159.35C194.806 159.76 194.361 160.265 194.081 160.865C193.801 161.465 193.631 162.05 193.571 162.62H201.911Z" fill="#F6DEBE"/>
</svg>
