<svg xmlns="http://www.w3.org/2000/svg" xmlns:xlink="http://www.w3.org/1999/xlink" width="336" zoomAndPan="magnify" viewBox="0 0 252 143.999998" height="192" preserveAspectRatio="xMidYMid meet" version="1.0"><defs><g/><clipPath id="8a35c3fd16"><path d="M 143 45 L 189 45 L 189 140 L 143 140 Z M 143 45 " clip-rule="nonzero"/></clipPath><clipPath id="9ae5a3c314"><path d="M 114.523438 94.335938 L 162.980469 45.882812 L 217.136719 100.039062 L 168.679688 148.496094 Z M 114.523438 94.335938 " clip-rule="nonzero"/></clipPath><clipPath id="e2f49772b9"><path d="M 92.832031 72.648438 L 162.667969 2.8125 L 238.199219 78.347656 L 168.367188 148.183594 Z M 92.832031 72.648438 " clip-rule="nonzero"/></clipPath><clipPath id="d8be3b66dc"><path d="M 152.464844 27.996094 L 172.621094 27.996094 L 172.621094 48.152344 L 152.464844 48.152344 Z M 152.464844 27.996094 " clip-rule="nonzero"/></clipPath><clipPath id="3dbe6da07f"><path d="M 162.652344 27.996094 C 157.027344 27.996094 152.464844 32.558594 152.464844 38.183594 C 152.464844 43.8125 157.027344 48.371094 162.652344 48.371094 C 168.277344 48.371094 172.839844 43.8125 172.839844 38.183594 C 172.839844 32.558594 168.277344 27.996094 162.652344 27.996094 Z M 162.652344 27.996094 " clip-rule="nonzero"/></clipPath></defs><g fill="#ffffff" fill-opacity="1"><g transform="translate(7.381623, 70.854111)"><g><path d="M 32.53125 -11.078125 C 34.40625 -11.078125 36.222656 -11.359375 37.984375 -11.921875 C 39.742188 -12.492188 41.035156 -13.039062 41.859375 -13.5625 L 43.09375 -14.40625 L 48.3125 -3.984375 C 48.144531 -3.847656 47.90625 -3.671875 47.59375 -3.453125 C 47.289062 -3.234375 46.582031 -2.832031 45.46875 -2.25 C 44.363281 -1.664062 43.179688 -1.15625 41.921875 -0.71875 C 40.660156 -0.28125 39.007812 0.109375 36.96875 0.453125 C 34.925781 0.804688 32.816406 0.984375 30.640625 0.984375 C 25.640625 0.984375 20.898438 -0.242188 16.421875 -2.703125 C 11.953125 -5.160156 8.347656 -8.539062 5.609375 -12.84375 C 2.867188 -17.144531 1.5 -21.796875 1.5 -26.796875 C 1.5 -30.578125 2.300781 -34.207031 3.90625 -37.6875 C 5.519531 -41.164062 7.660156 -44.144531 10.328125 -46.625 C 13.003906 -49.101562 16.125 -51.078125 19.6875 -52.546875 C 23.25 -54.023438 26.898438 -54.765625 30.640625 -54.765625 C 34.117188 -54.765625 37.328125 -54.351562 40.265625 -53.53125 C 43.203125 -52.707031 45.273438 -51.878906 46.484375 -51.046875 L 48.3125 -49.8125 L 43.09375 -39.375 C 42.789062 -39.644531 42.332031 -39.960938 41.71875 -40.328125 C 41.113281 -40.691406 39.898438 -41.175781 38.078125 -41.78125 C 36.253906 -42.394531 34.40625 -42.703125 32.53125 -42.703125 C 29.582031 -42.703125 26.929688 -42.222656 24.578125 -41.265625 C 22.234375 -40.316406 20.375 -39.054688 19 -37.484375 C 17.632812 -35.921875 16.59375 -34.238281 15.875 -32.4375 C 15.15625 -30.632812 14.796875 -28.796875 14.796875 -26.921875 C 14.796875 -22.835938 16.328125 -19.175781 19.390625 -15.9375 C 22.460938 -12.695312 26.84375 -11.078125 32.53125 -11.078125 Z M 32.53125 -11.078125 "/></g></g></g><g fill="#ffffff" fill-opacity="1"><g transform="translate(53.216837, 70.854111)"><g><path d="M 7.078125 -3.96875 C 3.359375 -7.28125 1.5 -11.519531 1.5 -16.6875 C 1.5 -21.863281 3.429688 -26.113281 7.296875 -29.4375 C 11.171875 -32.757812 15.953125 -34.421875 21.640625 -34.421875 C 27.253906 -34.421875 31.984375 -32.75 35.828125 -29.40625 C 39.671875 -26.0625 41.59375 -21.820312 41.59375 -16.6875 C 41.59375 -11.5625 39.710938 -7.332031 35.953125 -4 C 32.191406 -0.675781 27.421875 0.984375 21.640625 0.984375 C 15.648438 0.984375 10.796875 -0.664062 7.078125 -3.96875 Z M 16 -22.359375 C 14.507812 -20.878906 13.765625 -18.988281 13.765625 -16.6875 C 13.765625 -14.382812 14.476562 -12.503906 15.90625 -11.046875 C 17.34375 -9.597656 19.234375 -8.875 21.578125 -8.875 C 23.835938 -8.875 25.695312 -9.609375 27.15625 -11.078125 C 28.613281 -12.554688 29.34375 -14.425781 29.34375 -16.6875 C 29.34375 -18.988281 28.59375 -20.878906 27.09375 -22.359375 C 25.59375 -23.835938 23.753906 -24.578125 21.578125 -24.578125 C 19.359375 -24.578125 17.5 -23.835938 16 -22.359375 Z M 16 -22.359375 "/></g></g></g><g fill="#ffffff" fill-opacity="1"><g transform="translate(93.053578, 70.854111)"><g><path d="M 21.71875 -24.96875 C 19.539062 -24.96875 17.671875 -24.160156 16.109375 -22.546875 C 14.546875 -20.941406 13.765625 -19.007812 13.765625 -16.75 C 13.765625 -14.445312 14.546875 -12.488281 16.109375 -10.875 C 17.671875 -9.269531 19.539062 -8.46875 21.71875 -8.46875 C 22.757812 -8.46875 23.742188 -8.597656 24.671875 -8.859375 C 25.609375 -9.128906 26.296875 -9.394531 26.734375 -9.65625 L 27.3125 -10.046875 L 31.234375 -2.015625 C 30.929688 -1.796875 30.503906 -1.523438 29.953125 -1.203125 C 29.410156 -0.878906 28.171875 -0.4375 26.234375 0.125 C 24.304688 0.695312 22.234375 0.984375 20.015625 0.984375 C 15.109375 0.984375 10.796875 -0.742188 7.078125 -4.203125 C 3.359375 -7.660156 1.5 -11.800781 1.5 -16.625 C 1.5 -21.488281 3.359375 -25.671875 7.078125 -29.171875 C 10.796875 -32.671875 15.109375 -34.421875 20.015625 -34.421875 C 22.234375 -34.421875 24.273438 -34.160156 26.140625 -33.640625 C 28.015625 -33.117188 29.34375 -32.597656 30.125 -32.078125 L 31.234375 -31.296875 L 27.3125 -23.40625 C 25.882812 -24.445312 24.019531 -24.96875 21.71875 -24.96875 Z M 21.71875 -24.96875 "/></g></g></g><g fill="#ffffff" fill-opacity="1"><g transform="translate(121.806217, 70.854111)"><g><path d="M 7.078125 -3.96875 C 3.359375 -7.28125 1.5 -11.519531 1.5 -16.6875 C 1.5 -21.863281 3.429688 -26.113281 7.296875 -29.4375 C 11.171875 -32.757812 15.953125 -34.421875 21.640625 -34.421875 C 27.253906 -34.421875 31.984375 -32.75 35.828125 -29.40625 C 39.671875 -26.0625 41.59375 -21.820312 41.59375 -16.6875 C 41.59375 -11.5625 39.710938 -7.332031 35.953125 -4 C 32.191406 -0.675781 27.421875 0.984375 21.640625 0.984375 C 15.648438 0.984375 10.796875 -0.664062 7.078125 -3.96875 Z M 16 -22.359375 C 14.507812 -20.878906 13.765625 -18.988281 13.765625 -16.6875 C 13.765625 -14.382812 14.476562 -12.503906 15.90625 -11.046875 C 17.34375 -9.597656 19.234375 -8.875 21.578125 -8.875 C 23.835938 -8.875 25.695312 -9.609375 27.15625 -11.078125 C 28.613281 -12.554688 29.34375 -14.425781 29.34375 -16.6875 C 29.34375 -18.988281 28.59375 -20.878906 27.09375 -22.359375 C 25.59375 -23.835938 23.753906 -24.578125 21.578125 -24.578125 C 19.359375 -24.578125 17.5 -23.835938 16 -22.359375 Z M 16 -22.359375 "/></g></g></g><g fill="#ffffff" fill-opacity="1"><g transform="translate(161.642964, 70.854111)"><g><path d="M 7.078125 -3.96875 C 3.359375 -7.28125 1.5 -11.519531 1.5 -16.6875 C 1.5 -21.863281 3.429688 -26.113281 7.296875 -29.4375 C 11.171875 -32.757812 15.953125 -34.421875 21.640625 -34.421875 C 27.253906 -34.421875 31.984375 -32.75 35.828125 -29.40625 C 39.671875 -26.0625 41.59375 -21.820312 41.59375 -16.6875 C 41.59375 -11.5625 39.710938 -7.332031 35.953125 -4 C 32.191406 -0.675781 27.421875 0.984375 21.640625 0.984375 C 15.648438 0.984375 10.796875 -0.664062 7.078125 -3.96875 Z M 16 -22.359375 C 14.507812 -20.878906 13.765625 -18.988281 13.765625 -16.6875 C 13.765625 -14.382812 14.476562 -12.503906 15.90625 -11.046875 C 17.34375 -9.597656 19.234375 -8.875 21.578125 -8.875 C 23.835938 -8.875 25.695312 -9.609375 27.15625 -11.078125 C 28.613281 -12.554688 29.34375 -14.425781 29.34375 -16.6875 C 29.34375 -18.988281 28.59375 -20.878906 27.09375 -22.359375 C 25.59375 -23.835938 23.753906 -24.578125 21.578125 -24.578125 C 19.359375 -24.578125 17.5 -23.835938 16 -22.359375 Z M 16 -22.359375 "/></g></g></g><g fill="#ffffff" fill-opacity="1"><g transform="translate(201.479711, 70.854111)"><g><path d="M 3.90625 0 L 3.90625 -33.453125 L 15.453125 -33.453125 L 15.453125 -29.921875 L 15.578125 -29.921875 C 18.578125 -32.921875 21.773438 -34.421875 25.171875 -34.421875 C 26.816406 -34.421875 28.453125 -34.203125 30.078125 -33.765625 C 31.710938 -33.335938 33.28125 -32.664062 34.78125 -31.75 C 36.28125 -30.84375 37.5 -29.550781 38.4375 -27.875 C 39.375 -26.195312 39.84375 -24.25 39.84375 -22.03125 L 39.84375 0 L 28.296875 0 L 28.296875 -18.90625 C 28.296875 -20.644531 27.738281 -22.164062 26.625 -23.46875 C 25.519531 -24.769531 24.078125 -25.421875 22.296875 -25.421875 C 20.554688 -25.421875 18.976562 -24.75 17.5625 -23.40625 C 16.15625 -22.0625 15.453125 -20.5625 15.453125 -18.90625 L 15.453125 0 Z M 3.90625 0 "/></g></g></g><g clip-path="url(#8a35c3fd16)"><g clip-path="url(#9ae5a3c314)"><g clip-path="url(#e2f49772b9)"><path fill="#ffffff" d="M 158.761719 48.664062 L 158.398438 99.136719 C 157.121094 99.328125 156.140625 100.425781 156.140625 101.757812 L 156.140625 103.304688 C 156.140625 104.617188 157.097656 105.707031 158.351562 105.917969 L 158.132812 136.464844 C 158.132812 137.929688 159.320312 139.117188 160.785156 139.117188 L 164.761719 139.117188 C 166.226562 139.117188 167.414062 137.929688 167.414062 136.464844 L 167.363281 129.167969 C 167.394531 128.804688 167.546875 128.453125 168.082031 128.394531 L 176.535156 128.394531 C 177.265625 128.394531 177.859375 127.800781 177.859375 127.070312 L 177.859375 125.410156 L 182.503906 125.410156 L 182.503906 127.070312 C 182.503906 127.800781 182.792969 128.394531 183.152344 128.394531 L 187.378906 128.394531 C 187.738281 128.394531 188.03125 127.800781 188.03125 127.070312 L 188.03125 121.429688 L 185.15625 121.429688 L 185.15625 116.347656 L 188.03125 116.347656 L 188.03125 110.710938 C 188.03125 109.976562 187.738281 109.382812 187.378906 109.382812 L 183.152344 109.382812 C 182.792969 109.382812 182.503906 109.976562 182.5 110.710938 L 182.5 112.367188 L 177.859375 112.367188 L 177.859375 110.710938 C 177.859375 109.976562 177.265625 109.382812 176.535156 109.382812 L 168.089844 109.382812 C 167.410156 109.382812 167.246094 108.980469 167.214844 108.578125 L 167.195312 105.917969 C 168.449219 105.707031 169.40625 104.617188 169.40625 103.304688 L 169.40625 101.757812 C 169.40625 100.425781 168.425781 99.328125 167.148438 99.136719 L 166.785156 48.371094 C 166.898438 46.179688 167.90625 45.109375 168.929688 44.738281 C 176.53125 42.714844 182.003906 37.058594 182.003906 30.390625 C 182.003906 22.027344 173.394531 15.25 162.773438 15.25 C 152.152344 15.25 143.539062 22.027344 143.539062 30.390625 C 143.539062 37.046875 148.996094 42.695312 156.578125 44.726562 C 157.660156 45.109375 158.722656 46.257812 158.761719 48.664062 Z M 156.582031 37.796875 C 152.496094 37.796875 149.179688 34.484375 149.179688 30.390625 C 149.179688 26.300781 152.496094 22.984375 156.582031 22.988281 C 158.363281 22.988281 159.992188 23.613281 161.269531 24.660156 C 161.789062 25.199219 162.121094 26.394531 162.773438 26.394531 C 163.421875 26.394531 163.753906 25.210938 164.269531 24.667969 C 165.546875 23.617188 167.179688 22.988281 168.960938 22.988281 C 173.054688 22.988281 176.371094 26.300781 176.371094 30.390625 C 176.371094 34.484375 173.054688 37.796875 168.960938 37.796875 C 167.175781 37.796875 165.535156 37.164062 164.257812 36.109375 C 163.75 35.558594 163.417969 34.394531 162.773438 34.394531 C 162.125 34.394531 161.792969 35.574219 161.277344 36.117188 C 160 37.167969 158.367188 37.796875 156.582031 37.796875 Z M 156.582031 37.796875 " fill-opacity="1" fill-rule="nonzero"/></g></g></g><g fill="#f6debe" fill-opacity="1"><g transform="translate(10.631527, 125.925481)"><g/></g></g><g fill="#f6debe" fill-opacity="1"><g transform="translate(16.262604, 125.925481)"><g><path d="M 12.890625 -15.3125 C 13.085938 -15.3125 13.242188 -15.25 13.359375 -15.125 C 13.484375 -15 13.546875 -14.84375 13.546875 -14.65625 L 13.546875 -5.59375 C 13.546875 -4.519531 13.289062 -3.546875 12.78125 -2.671875 C 12.269531 -1.796875 11.582031 -1.097656 10.71875 -0.578125 C 9.851562 -0.0546875 8.882812 0.203125 7.8125 0.203125 C 6.726562 0.203125 5.753906 -0.0546875 4.890625 -0.578125 C 4.023438 -1.097656 3.335938 -1.796875 2.828125 -2.671875 C 2.316406 -3.546875 2.0625 -4.519531 2.0625 -5.59375 L 2.0625 -14.65625 C 2.0625 -14.84375 2.117188 -15 2.234375 -15.125 C 2.359375 -15.25 2.53125 -15.3125 2.75 -15.3125 C 2.925781 -15.3125 3.078125 -15.25 3.203125 -15.125 C 3.335938 -15 3.40625 -14.84375 3.40625 -14.65625 L 3.40625 -5.59375 C 3.40625 -4.75 3.601562 -3.988281 4 -3.3125 C 4.40625 -2.644531 4.941406 -2.109375 5.609375 -1.703125 C 6.285156 -1.304688 7.019531 -1.109375 7.8125 -1.109375 C 8.625 -1.109375 9.363281 -1.304688 10.03125 -1.703125 C 10.707031 -2.109375 11.242188 -2.644531 11.640625 -3.3125 C 12.046875 -3.988281 12.25 -4.75 12.25 -5.59375 L 12.25 -14.65625 C 12.25 -14.84375 12.304688 -15 12.421875 -15.125 C 12.535156 -15.25 12.691406 -15.3125 12.890625 -15.3125 Z M 12.890625 -15.3125 "/></g></g></g><g fill="#f6debe" fill-opacity="1"><g transform="translate(31.507552, 125.925481)"><g><path d="M 8.734375 -1.21875 C 8.898438 -1.21875 9.046875 -1.15625 9.171875 -1.03125 C 9.296875 -0.914062 9.359375 -0.773438 9.359375 -0.609375 C 9.359375 -0.429688 9.296875 -0.285156 9.171875 -0.171875 C 9.046875 -0.0546875 8.898438 0 8.734375 0 L 1.625 0 C 1.425781 0 1.269531 -0.0703125 1.15625 -0.21875 C 1.039062 -0.363281 0.984375 -0.503906 0.984375 -0.640625 C 0.984375 -0.722656 1 -0.800781 1.03125 -0.875 C 1.0625 -0.957031 1.113281 -1.046875 1.1875 -1.140625 L 7.8125 -10.296875 L 7.890625 -10.109375 L 2.171875 -10.109375 C 1.992188 -10.109375 1.84375 -10.171875 1.71875 -10.296875 C 1.59375 -10.421875 1.53125 -10.5625 1.53125 -10.71875 C 1.53125 -10.894531 1.59375 -11.039062 1.71875 -11.15625 C 1.84375 -11.269531 1.992188 -11.328125 2.171875 -11.328125 L 8.875 -11.328125 C 9.039062 -11.328125 9.1875 -11.257812 9.3125 -11.125 C 9.4375 -11 9.5 -10.847656 9.5 -10.671875 C 9.5 -10.585938 9.484375 -10.507812 9.453125 -10.4375 C 9.421875 -10.363281 9.375 -10.28125 9.3125 -10.1875 L 2.734375 -1.109375 L 2.46875 -1.21875 Z M 8.734375 -1.21875 "/></g></g></g><g fill="#f6debe" fill-opacity="1"><g transform="translate(41.634342, 125.925481)"><g><path d="M 6.78125 0.21875 C 5.65625 0.21875 4.660156 -0.0195312 3.796875 -0.5 C 2.941406 -0.976562 2.273438 -1.648438 1.796875 -2.515625 C 1.316406 -3.378906 1.078125 -4.382812 1.078125 -5.53125 C 1.078125 -6.769531 1.316406 -7.828125 1.796875 -8.703125 C 2.285156 -9.578125 2.921875 -10.25 3.703125 -10.71875 C 4.484375 -11.195312 5.3125 -11.4375 6.1875 -11.4375 C 6.832031 -11.4375 7.457031 -11.320312 8.0625 -11.09375 C 8.664062 -10.875 9.203125 -10.539062 9.671875 -10.09375 C 10.148438 -9.644531 10.53125 -9.097656 10.8125 -8.453125 C 11.101562 -7.816406 11.257812 -7.078125 11.28125 -6.234375 C 11.269531 -6.054688 11.195312 -5.90625 11.0625 -5.78125 C 10.9375 -5.65625 10.785156 -5.59375 10.609375 -5.59375 L 1.84375 -5.59375 L 1.578125 -6.78125 L 10.1875 -6.78125 L 9.90625 -6.515625 L 9.90625 -6.953125 C 9.851562 -7.640625 9.632812 -8.222656 9.25 -8.703125 C 8.875 -9.179688 8.414062 -9.546875 7.875 -9.796875 C 7.332031 -10.046875 6.769531 -10.171875 6.1875 -10.171875 C 5.75 -10.171875 5.300781 -10.082031 4.84375 -9.90625 C 4.382812 -9.726562 3.96875 -9.453125 3.59375 -9.078125 C 3.226562 -8.710938 2.925781 -8.238281 2.6875 -7.65625 C 2.457031 -7.082031 2.34375 -6.40625 2.34375 -5.625 C 2.34375 -4.757812 2.515625 -3.976562 2.859375 -3.28125 C 3.210938 -2.582031 3.71875 -2.023438 4.375 -1.609375 C 5.039062 -1.203125 5.835938 -1 6.765625 -1 C 7.273438 -1 7.734375 -1.070312 8.140625 -1.21875 C 8.546875 -1.363281 8.898438 -1.554688 9.203125 -1.796875 C 9.515625 -2.046875 9.769531 -2.300781 9.96875 -2.5625 C 10.132812 -2.6875 10.296875 -2.75 10.453125 -2.75 C 10.597656 -2.75 10.722656 -2.691406 10.828125 -2.578125 C 10.941406 -2.460938 11 -2.332031 11 -2.1875 C 11 -2.007812 10.925781 -1.859375 10.78125 -1.734375 C 10.34375 -1.203125 9.773438 -0.742188 9.078125 -0.359375 C 8.378906 0.0234375 7.613281 0.21875 6.78125 0.21875 Z M 6.328125 -12.203125 C 6.222656 -12.203125 6.125 -12.226562 6.03125 -12.28125 C 5.9375 -12.34375 5.851562 -12.410156 5.78125 -12.484375 L 4.046875 -14.0625 C 3.960938 -14.15625 3.890625 -14.242188 3.828125 -14.328125 C 3.765625 -14.410156 3.734375 -14.515625 3.734375 -14.640625 C 3.734375 -14.835938 3.800781 -14.992188 3.9375 -15.109375 C 4.070312 -15.234375 4.222656 -15.296875 4.390625 -15.296875 C 4.554688 -15.296875 4.695312 -15.25 4.8125 -15.15625 C 4.925781 -15.070312 5.015625 -14.984375 5.078125 -14.890625 L 6.5625 -12.96875 C 6.675781 -12.820312 6.734375 -12.695312 6.734375 -12.59375 C 6.734375 -12.5 6.691406 -12.410156 6.609375 -12.328125 C 6.535156 -12.242188 6.441406 -12.203125 6.328125 -12.203125 Z M 6.328125 -12.203125 "/></g></g></g><g fill="#f6debe" fill-opacity="1"><g transform="translate(53.642169, 125.925481)"><g><path d="M 1.09375 -1.765625 C 0.976562 -1.941406 0.921875 -2.113281 0.921875 -2.28125 C 0.929688 -2.445312 1.023438 -2.582031 1.203125 -2.6875 C 1.316406 -2.789062 1.453125 -2.832031 1.609375 -2.8125 C 1.765625 -2.800781 1.90625 -2.734375 2.03125 -2.609375 C 2.425781 -2.097656 2.90625 -1.679688 3.46875 -1.359375 C 4.03125 -1.046875 4.695312 -0.890625 5.46875 -0.890625 C 5.875 -0.890625 6.273438 -0.957031 6.671875 -1.09375 C 7.078125 -1.238281 7.410156 -1.453125 7.671875 -1.734375 C 7.941406 -2.023438 8.078125 -2.390625 8.078125 -2.828125 C 8.078125 -3.273438 7.941406 -3.632812 7.671875 -3.90625 C 7.410156 -4.1875 7.070312 -4.40625 6.65625 -4.5625 C 6.238281 -4.726562 5.800781 -4.867188 5.34375 -4.984375 C 4.84375 -5.117188 4.359375 -5.269531 3.890625 -5.4375 C 3.421875 -5.601562 3.007812 -5.8125 2.65625 -6.0625 C 2.300781 -6.320312 2.015625 -6.632812 1.796875 -7 C 1.578125 -7.363281 1.46875 -7.804688 1.46875 -8.328125 C 1.46875 -8.941406 1.632812 -9.484375 1.96875 -9.953125 C 2.300781 -10.421875 2.753906 -10.785156 3.328125 -11.046875 C 3.910156 -11.304688 4.566406 -11.4375 5.296875 -11.4375 C 5.660156 -11.4375 6.050781 -11.390625 6.46875 -11.296875 C 6.894531 -11.203125 7.3125 -11.046875 7.71875 -10.828125 C 8.125 -10.609375 8.488281 -10.3125 8.8125 -9.9375 C 8.945312 -9.800781 9.015625 -9.648438 9.015625 -9.484375 C 9.015625 -9.316406 8.941406 -9.164062 8.796875 -9.03125 C 8.679688 -8.945312 8.546875 -8.90625 8.390625 -8.90625 C 8.234375 -8.90625 8.101562 -8.960938 8 -9.078125 C 7.65625 -9.472656 7.238281 -9.769531 6.75 -9.96875 C 6.269531 -10.175781 5.753906 -10.28125 5.203125 -10.28125 C 4.785156 -10.28125 4.390625 -10.207031 4.015625 -10.0625 C 3.640625 -9.925781 3.328125 -9.71875 3.078125 -9.4375 C 2.835938 -9.164062 2.71875 -8.804688 2.71875 -8.359375 C 2.738281 -7.929688 2.882812 -7.585938 3.15625 -7.328125 C 3.425781 -7.066406 3.785156 -6.847656 4.234375 -6.671875 C 4.679688 -6.492188 5.179688 -6.332031 5.734375 -6.1875 C 6.203125 -6.070312 6.648438 -5.929688 7.078125 -5.765625 C 7.503906 -5.609375 7.878906 -5.410156 8.203125 -5.171875 C 8.535156 -4.929688 8.800781 -4.628906 9 -4.265625 C 9.195312 -3.898438 9.296875 -3.441406 9.296875 -2.890625 C 9.296875 -2.242188 9.113281 -1.6875 8.75 -1.21875 C 8.394531 -0.757812 7.921875 -0.40625 7.328125 -0.15625 C 6.734375 0.09375 6.070312 0.21875 5.34375 0.21875 C 4.550781 0.21875 3.785156 0.0664062 3.046875 -0.234375 C 2.316406 -0.546875 1.664062 -1.054688 1.09375 -1.765625 Z M 1.09375 -1.765625 "/></g></g></g><g fill="#f6debe" fill-opacity="1"><g transform="translate(63.550236, 125.925481)"><g/></g></g><g fill="#f6debe" fill-opacity="1"><g transform="translate(69.17129, 125.925481)"><g><path d="M 1.90625 -6.1875 C 1.726562 -6.1875 1.578125 -6.25 1.453125 -6.375 C 1.328125 -6.507812 1.265625 -6.675781 1.265625 -6.875 C 1.265625 -7.039062 1.328125 -7.1875 1.453125 -7.3125 C 1.578125 -7.4375 1.726562 -7.5 1.90625 -7.5 L 6.625 -7.5 C 6.800781 -7.5 6.953125 -7.429688 7.078125 -7.296875 C 7.210938 -7.171875 7.28125 -7.015625 7.28125 -6.828125 C 7.28125 -6.648438 7.210938 -6.5 7.078125 -6.375 C 6.953125 -6.25 6.800781 -6.1875 6.625 -6.1875 Z M 1.90625 -6.1875 "/></g></g></g><g fill="#f6debe" fill-opacity="1"><g transform="translate(77.351429, 125.925481)"><g/></g></g><g fill="#f6debe" fill-opacity="1"><g transform="translate(82.972483, 125.925481)"><g><path d="M 8.515625 -15.3125 C 9.734375 -15.3125 10.6875 -14.976562 11.375 -14.3125 C 12.070312 -13.65625 12.421875 -12.734375 12.421875 -11.546875 C 12.421875 -10.929688 12.289062 -10.347656 12.03125 -9.796875 C 11.769531 -9.242188 11.382812 -8.796875 10.875 -8.453125 C 10.363281 -8.109375 9.726562 -7.914062 8.96875 -7.875 L 8.875 -8.3125 C 9.414062 -8.3125 9.945312 -8.234375 10.46875 -8.078125 C 10.988281 -7.929688 11.453125 -7.6875 11.859375 -7.34375 C 12.265625 -7.007812 12.59375 -6.59375 12.84375 -6.09375 C 13.09375 -5.59375 13.21875 -4.984375 13.21875 -4.265625 C 13.21875 -3.503906 13.085938 -2.847656 12.828125 -2.296875 C 12.578125 -1.753906 12.234375 -1.316406 11.796875 -0.984375 C 11.367188 -0.648438 10.878906 -0.398438 10.328125 -0.234375 C 9.773438 -0.078125 9.195312 0 8.59375 0 L 2.71875 0 C 2.539062 0 2.382812 -0.0625 2.25 -0.1875 C 2.125 -0.320312 2.0625 -0.476562 2.0625 -0.65625 L 2.0625 -14.65625 C 2.0625 -14.832031 2.125 -14.984375 2.25 -15.109375 C 2.382812 -15.242188 2.539062 -15.3125 2.71875 -15.3125 Z M 8.328125 -14.015625 L 3.1875 -14.015625 L 3.453125 -14.421875 L 3.453125 -8.21875 L 3.21875 -8.546875 L 8.328125 -8.546875 C 9.085938 -8.566406 9.726562 -8.816406 10.25 -9.296875 C 10.769531 -9.773438 11.03125 -10.488281 11.03125 -11.4375 C 11.03125 -12.238281 10.796875 -12.867188 10.328125 -13.328125 C 9.859375 -13.785156 9.191406 -14.015625 8.328125 -14.015625 Z M 8.484375 -7.234375 L 3.34375 -7.234375 L 3.453125 -7.375 L 3.453125 -1.09375 L 3.328125 -1.296875 L 8.53125 -1.296875 C 9.46875 -1.296875 10.25 -1.53125 10.875 -2 C 11.5 -2.476562 11.8125 -3.234375 11.8125 -4.265625 C 11.8125 -4.992188 11.65625 -5.578125 11.34375 -6.015625 C 11.039062 -6.453125 10.632812 -6.765625 10.125 -6.953125 C 9.613281 -7.140625 9.066406 -7.234375 8.484375 -7.234375 Z M 8.484375 -7.234375 "/></g></g></g><g fill="#f6debe" fill-opacity="1"><g transform="translate(96.861334, 125.925481)"><g><path d="M 10.890625 -11.171875 C 11.078125 -11.171875 11.234375 -11.101562 11.359375 -10.96875 C 11.484375 -10.84375 11.546875 -10.6875 11.546875 -10.5 L 11.546875 -0.65625 C 11.546875 -0.476562 11.476562 -0.320312 11.34375 -0.1875 C 11.21875 -0.0625 11.066406 0 10.890625 0 C 10.703125 0 10.546875 -0.0625 10.421875 -0.1875 C 10.296875 -0.320312 10.234375 -0.476562 10.234375 -0.65625 L 10.234375 -3.265625 L 10.609375 -3.4375 C 10.609375 -3.03125 10.492188 -2.613281 10.265625 -2.1875 C 10.046875 -1.757812 9.738281 -1.363281 9.34375 -1 C 8.945312 -0.632812 8.484375 -0.335938 7.953125 -0.109375 C 7.421875 0.109375 6.847656 0.21875 6.234375 0.21875 C 5.242188 0.21875 4.359375 -0.0351562 3.578125 -0.546875 C 2.796875 -1.054688 2.179688 -1.753906 1.734375 -2.640625 C 1.296875 -3.535156 1.078125 -4.535156 1.078125 -5.640625 C 1.078125 -6.773438 1.300781 -7.773438 1.75 -8.640625 C 2.195312 -9.515625 2.804688 -10.195312 3.578125 -10.6875 C 4.359375 -11.1875 5.238281 -11.4375 6.21875 -11.4375 C 6.84375 -11.4375 7.425781 -11.328125 7.96875 -11.109375 C 8.519531 -10.890625 9 -10.585938 9.40625 -10.203125 C 9.8125 -9.828125 10.128906 -9.394531 10.359375 -8.90625 C 10.585938 -8.425781 10.703125 -7.921875 10.703125 -7.390625 L 10.234375 -7.71875 L 10.234375 -10.5 C 10.234375 -10.6875 10.296875 -10.84375 10.421875 -10.96875 C 10.546875 -11.101562 10.703125 -11.171875 10.890625 -11.171875 Z M 6.34375 -1 C 7.113281 -1 7.796875 -1.195312 8.390625 -1.59375 C 8.992188 -2 9.46875 -2.554688 9.8125 -3.265625 C 10.15625 -3.972656 10.328125 -4.765625 10.328125 -5.640625 C 10.328125 -6.503906 10.15625 -7.273438 9.8125 -7.953125 C 9.46875 -8.640625 8.992188 -9.1875 8.390625 -9.59375 C 7.796875 -10.007812 7.113281 -10.21875 6.34375 -10.21875 C 5.582031 -10.21875 4.898438 -10.019531 4.296875 -9.625 C 3.691406 -9.226562 3.21875 -8.6875 2.875 -8 C 2.53125 -7.320312 2.359375 -6.535156 2.359375 -5.640625 C 2.359375 -4.765625 2.53125 -3.972656 2.875 -3.265625 C 3.21875 -2.554688 3.6875 -2 4.28125 -1.59375 C 4.882812 -1.195312 5.570312 -1 6.34375 -1 Z M 6.34375 -1 "/></g></g></g><g fill="#f6debe" fill-opacity="1"><g transform="translate(109.765929, 125.925481)"><g><path d="M 2.390625 0 C 2.179688 0 2.019531 -0.0625 1.90625 -0.1875 C 1.789062 -0.320312 1.734375 -0.476562 1.734375 -0.65625 L 1.734375 -10.453125 C 1.734375 -10.628906 1.789062 -10.78125 1.90625 -10.90625 C 2.03125 -11.039062 2.191406 -11.109375 2.390625 -11.109375 C 2.578125 -11.109375 2.734375 -11.039062 2.859375 -10.90625 C 2.984375 -10.78125 3.046875 -10.628906 3.046875 -10.453125 L 3.046875 -7.171875 L 2.71875 -7.109375 C 2.757812 -7.617188 2.882812 -8.125 3.09375 -8.625 C 3.300781 -9.132812 3.585938 -9.597656 3.953125 -10.015625 C 4.316406 -10.441406 4.75 -10.785156 5.25 -11.046875 C 5.757812 -11.304688 6.328125 -11.4375 6.953125 -11.4375 C 7.210938 -11.4375 7.46875 -11.378906 7.71875 -11.265625 C 7.96875 -11.160156 8.09375 -10.984375 8.09375 -10.734375 C 8.09375 -10.515625 8.035156 -10.347656 7.921875 -10.234375 C 7.804688 -10.117188 7.664062 -10.0625 7.5 -10.0625 C 7.375 -10.0625 7.234375 -10.097656 7.078125 -10.171875 C 6.921875 -10.242188 6.71875 -10.28125 6.46875 -10.28125 C 6.0625 -10.28125 5.65625 -10.160156 5.25 -9.921875 C 4.84375 -9.679688 4.46875 -9.351562 4.125 -8.9375 C 3.789062 -8.53125 3.523438 -8.078125 3.328125 -7.578125 C 3.140625 -7.078125 3.046875 -6.570312 3.046875 -6.0625 L 3.046875 -0.65625 C 3.046875 -0.476562 2.976562 -0.320312 2.84375 -0.1875 C 2.707031 -0.0625 2.554688 0 2.390625 0 Z M 2.390625 0 "/></g></g></g><g fill="#f6debe" fill-opacity="1"><g transform="translate(117.836706, 125.925481)"><g><path d="M 3.328125 1 C 3.328125 1.707031 3.160156 2.300781 2.828125 2.78125 C 2.503906 3.269531 2.097656 3.644531 1.609375 3.90625 C 1.128906 4.175781 0.648438 4.3125 0.171875 4.3125 C -0.015625 4.3125 -0.160156 4.25 -0.265625 4.125 C -0.378906 4.007812 -0.4375 3.875 -0.4375 3.71875 L -0.4375 3.625 C -0.4375 3.457031 -0.378906 3.320312 -0.265625 3.21875 C -0.148438 3.113281 -0.0195312 3.046875 0.125 3.015625 C 0.46875 2.941406 0.78125 2.816406 1.0625 2.640625 C 1.34375 2.472656 1.570312 2.234375 1.75 1.921875 C 1.925781 1.617188 2.015625 1.25 2.015625 0.8125 L 2.015625 -10.484375 C 2.015625 -10.648438 2.078125 -10.800781 2.203125 -10.9375 C 2.328125 -11.070312 2.484375 -11.140625 2.671875 -11.140625 C 2.859375 -11.140625 3.015625 -11.070312 3.140625 -10.9375 C 3.265625 -10.800781 3.328125 -10.648438 3.328125 -10.484375 Z M 2.671875 -12.859375 C 2.359375 -12.859375 2.125 -12.925781 1.96875 -13.0625 C 1.820312 -13.207031 1.75 -13.410156 1.75 -13.671875 L 1.75 -13.890625 C 1.75 -14.148438 1.832031 -14.347656 2 -14.484375 C 2.164062 -14.628906 2.394531 -14.703125 2.6875 -14.703125 C 2.96875 -14.703125 3.179688 -14.628906 3.328125 -14.484375 C 3.484375 -14.347656 3.5625 -14.148438 3.5625 -13.890625 L 3.5625 -13.671875 C 3.5625 -13.410156 3.484375 -13.207031 3.328125 -13.0625 C 3.179688 -12.925781 2.960938 -12.859375 2.671875 -12.859375 Z M 2.671875 -12.859375 "/></g></g></g><g fill="#f6debe" fill-opacity="1"><g transform="translate(123.392152, 125.925481)"><g><path d="M 10.890625 -11.171875 C 11.078125 -11.171875 11.234375 -11.101562 11.359375 -10.96875 C 11.484375 -10.84375 11.546875 -10.6875 11.546875 -10.5 L 11.546875 -0.65625 C 11.546875 -0.476562 11.476562 -0.320312 11.34375 -0.1875 C 11.21875 -0.0625 11.066406 0 10.890625 0 C 10.703125 0 10.546875 -0.0625 10.421875 -0.1875 C 10.296875 -0.320312 10.234375 -0.476562 10.234375 -0.65625 L 10.234375 -3.265625 L 10.609375 -3.4375 C 10.609375 -3.03125 10.492188 -2.613281 10.265625 -2.1875 C 10.046875 -1.757812 9.738281 -1.363281 9.34375 -1 C 8.945312 -0.632812 8.484375 -0.335938 7.953125 -0.109375 C 7.421875 0.109375 6.847656 0.21875 6.234375 0.21875 C 5.242188 0.21875 4.359375 -0.0351562 3.578125 -0.546875 C 2.796875 -1.054688 2.179688 -1.753906 1.734375 -2.640625 C 1.296875 -3.535156 1.078125 -4.535156 1.078125 -5.640625 C 1.078125 -6.773438 1.300781 -7.773438 1.75 -8.640625 C 2.195312 -9.515625 2.804688 -10.195312 3.578125 -10.6875 C 4.359375 -11.1875 5.238281 -11.4375 6.21875 -11.4375 C 6.84375 -11.4375 7.425781 -11.328125 7.96875 -11.109375 C 8.519531 -10.890625 9 -10.585938 9.40625 -10.203125 C 9.8125 -9.828125 10.128906 -9.394531 10.359375 -8.90625 C 10.585938 -8.425781 10.703125 -7.921875 10.703125 -7.390625 L 10.234375 -7.71875 L 10.234375 -10.5 C 10.234375 -10.6875 10.296875 -10.84375 10.421875 -10.96875 C 10.546875 -11.101562 10.703125 -11.171875 10.890625 -11.171875 Z M 6.34375 -1 C 7.113281 -1 7.796875 -1.195312 8.390625 -1.59375 C 8.992188 -2 9.46875 -2.554688 9.8125 -3.265625 C 10.15625 -3.972656 10.328125 -4.765625 10.328125 -5.640625 C 10.328125 -6.503906 10.15625 -7.273438 9.8125 -7.953125 C 9.46875 -8.640625 8.992188 -9.1875 8.390625 -9.59375 C 7.796875 -10.007812 7.113281 -10.21875 6.34375 -10.21875 C 5.582031 -10.21875 4.898438 -10.019531 4.296875 -9.625 C 3.691406 -9.226562 3.21875 -8.6875 2.875 -8 C 2.53125 -7.320312 2.359375 -6.535156 2.359375 -5.640625 C 2.359375 -4.765625 2.53125 -3.972656 2.875 -3.265625 C 3.21875 -2.554688 3.6875 -2 4.28125 -1.59375 C 4.882812 -1.195312 5.570312 -1 6.34375 -1 Z M 6.34375 -1 "/></g></g></g><g fill="#f6debe" fill-opacity="1"><g transform="translate(136.296753, 125.925481)"><g><path d="M 6.65625 -11.4375 C 7.351562 -11.4375 7.992188 -11.359375 8.578125 -11.203125 C 9.160156 -11.054688 9.628906 -10.847656 9.984375 -10.578125 C 10.335938 -10.316406 10.515625 -10.035156 10.515625 -9.734375 C 10.515625 -9.585938 10.460938 -9.441406 10.359375 -9.296875 C 10.265625 -9.160156 10.128906 -9.09375 9.953125 -9.09375 C 9.773438 -9.09375 9.628906 -9.132812 9.515625 -9.21875 C 9.410156 -9.3125 9.300781 -9.414062 9.1875 -9.53125 C 9.082031 -9.65625 8.929688 -9.765625 8.734375 -9.859375 C 8.535156 -9.953125 8.257812 -10.035156 7.90625 -10.109375 C 7.5625 -10.179688 7.164062 -10.21875 6.71875 -10.21875 C 5.894531 -10.21875 5.15625 -10.007812 4.5 -9.59375 C 3.84375 -9.1875 3.328125 -8.632812 2.953125 -7.9375 C 2.578125 -7.25 2.390625 -6.476562 2.390625 -5.625 C 2.390625 -4.75 2.570312 -3.957031 2.9375 -3.25 C 3.300781 -2.550781 3.800781 -2 4.4375 -1.59375 C 5.082031 -1.195312 5.832031 -1 6.6875 -1 C 7.269531 -1 7.722656 -1.050781 8.046875 -1.15625 C 8.367188 -1.257812 8.644531 -1.378906 8.875 -1.515625 C 9.15625 -1.671875 9.359375 -1.820312 9.484375 -1.96875 C 9.609375 -2.125 9.769531 -2.203125 9.96875 -2.203125 C 10.164062 -2.203125 10.3125 -2.144531 10.40625 -2.03125 C 10.5 -1.925781 10.546875 -1.789062 10.546875 -1.625 C 10.546875 -1.382812 10.375 -1.125 10.03125 -0.84375 C 9.6875 -0.5625 9.210938 -0.3125 8.609375 -0.09375 C 8.015625 0.113281 7.332031 0.21875 6.5625 0.21875 C 5.46875 0.21875 4.507812 -0.0351562 3.6875 -0.546875 C 2.863281 -1.054688 2.222656 -1.75 1.765625 -2.625 C 1.304688 -3.507812 1.078125 -4.507812 1.078125 -5.625 C 1.078125 -6.6875 1.304688 -7.65625 1.765625 -8.53125 C 2.234375 -9.40625 2.882812 -10.109375 3.71875 -10.640625 C 4.5625 -11.171875 5.539062 -11.4375 6.65625 -11.4375 Z M 6.65625 -11.4375 "/></g></g></g><g fill="#f6debe" fill-opacity="1"><g transform="translate(16.187367, 105.362663)"><g><path d="M 6.65625 -11.4375 C 7.351562 -11.4375 7.992188 -11.359375 8.578125 -11.203125 C 9.160156 -11.054688 9.628906 -10.847656 9.984375 -10.578125 C 10.335938 -10.316406 10.515625 -10.035156 10.515625 -9.734375 C 10.515625 -9.585938 10.460938 -9.441406 10.359375 -9.296875 C 10.265625 -9.160156 10.128906 -9.09375 9.953125 -9.09375 C 9.773438 -9.09375 9.628906 -9.132812 9.515625 -9.21875 C 9.410156 -9.3125 9.300781 -9.414062 9.1875 -9.53125 C 9.082031 -9.65625 8.929688 -9.765625 8.734375 -9.859375 C 8.535156 -9.953125 8.257812 -10.035156 7.90625 -10.109375 C 7.5625 -10.179688 7.164062 -10.21875 6.71875 -10.21875 C 5.894531 -10.21875 5.15625 -10.007812 4.5 -9.59375 C 3.84375 -9.1875 3.328125 -8.632812 2.953125 -7.9375 C 2.578125 -7.25 2.390625 -6.476562 2.390625 -5.625 C 2.390625 -4.75 2.570312 -3.957031 2.9375 -3.25 C 3.300781 -2.550781 3.800781 -2 4.4375 -1.59375 C 5.082031 -1.195312 5.832031 -1 6.6875 -1 C 7.269531 -1 7.722656 -1.050781 8.046875 -1.15625 C 8.367188 -1.257812 8.644531 -1.378906 8.875 -1.515625 C 9.15625 -1.671875 9.359375 -1.820312 9.484375 -1.96875 C 9.609375 -2.125 9.769531 -2.203125 9.96875 -2.203125 C 10.164062 -2.203125 10.3125 -2.144531 10.40625 -2.03125 C 10.5 -1.925781 10.546875 -1.789062 10.546875 -1.625 C 10.546875 -1.382812 10.375 -1.125 10.03125 -0.84375 C 9.6875 -0.5625 9.210938 -0.3125 8.609375 -0.09375 C 8.015625 0.113281 7.332031 0.21875 6.5625 0.21875 C 5.46875 0.21875 4.507812 -0.0351562 3.6875 -0.546875 C 2.863281 -1.054688 2.222656 -1.75 1.765625 -2.625 C 1.304688 -3.507812 1.078125 -4.507812 1.078125 -5.625 C 1.078125 -6.6875 1.304688 -7.65625 1.765625 -8.53125 C 2.234375 -9.40625 2.882812 -10.109375 3.71875 -10.640625 C 4.5625 -11.171875 5.539062 -11.4375 6.65625 -11.4375 Z M 6.65625 -11.4375 "/></g></g></g><g fill="#f6debe" fill-opacity="1"><g transform="translate(28.195692, 105.362663)"><g><path d="M 12.140625 -5.59375 C 12.140625 -4.488281 11.898438 -3.492188 11.421875 -2.609375 C 10.941406 -1.734375 10.285156 -1.039062 9.453125 -0.53125 C 8.617188 -0.03125 7.671875 0.21875 6.609375 0.21875 C 5.566406 0.21875 4.625 -0.03125 3.78125 -0.53125 C 2.945312 -1.039062 2.285156 -1.734375 1.796875 -2.609375 C 1.316406 -3.492188 1.078125 -4.488281 1.078125 -5.59375 C 1.078125 -6.71875 1.316406 -7.71875 1.796875 -8.59375 C 2.285156 -9.46875 2.945312 -10.160156 3.78125 -10.671875 C 4.625 -11.179688 5.566406 -11.4375 6.609375 -11.4375 C 7.671875 -11.4375 8.617188 -11.179688 9.453125 -10.671875 C 10.285156 -10.160156 10.941406 -9.46875 11.421875 -8.59375 C 11.898438 -7.71875 12.140625 -6.71875 12.140625 -5.59375 Z M 10.828125 -5.59375 C 10.828125 -6.488281 10.644531 -7.28125 10.28125 -7.96875 C 9.914062 -8.664062 9.414062 -9.210938 8.78125 -9.609375 C 8.144531 -10.015625 7.421875 -10.21875 6.609375 -10.21875 C 5.816406 -10.21875 5.097656 -10.015625 4.453125 -9.609375 C 3.816406 -9.210938 3.3125 -8.664062 2.9375 -7.96875 C 2.570312 -7.28125 2.390625 -6.488281 2.390625 -5.59375 C 2.390625 -4.707031 2.570312 -3.921875 2.9375 -3.234375 C 3.3125 -2.546875 3.816406 -2 4.453125 -1.59375 C 5.097656 -1.195312 5.816406 -1 6.609375 -1 C 7.421875 -1 8.144531 -1.195312 8.78125 -1.59375 C 9.414062 -2 9.914062 -2.546875 10.28125 -3.234375 C 10.644531 -3.921875 10.828125 -4.707031 10.828125 -5.59375 Z M 10.828125 -5.59375 "/></g></g></g><g fill="#f6debe" fill-opacity="1"><g transform="translate(42.085053, 105.362663)"><g><path d="M 7 -11.4375 C 7.957031 -11.4375 8.722656 -11.242188 9.296875 -10.859375 C 9.878906 -10.472656 10.296875 -9.945312 10.546875 -9.28125 C 10.804688 -8.625 10.9375 -7.894531 10.9375 -7.09375 L 10.9375 -0.65625 C 10.9375 -0.476562 10.867188 -0.320312 10.734375 -0.1875 C 10.609375 -0.0625 10.457031 0 10.28125 0 C 10.070312 0 9.910156 -0.0625 9.796875 -0.1875 C 9.679688 -0.320312 9.625 -0.476562 9.625 -0.65625 L 9.625 -7.015625 C 9.625 -7.597656 9.53125 -8.128906 9.34375 -8.609375 C 9.15625 -9.097656 8.84375 -9.488281 8.40625 -9.78125 C 7.976562 -10.070312 7.414062 -10.21875 6.71875 -10.21875 C 6.09375 -10.21875 5.5 -10.070312 4.9375 -9.78125 C 4.375 -9.488281 3.914062 -9.097656 3.5625 -8.609375 C 3.21875 -8.128906 3.046875 -7.597656 3.046875 -7.015625 L 3.046875 -0.65625 C 3.046875 -0.476562 2.976562 -0.320312 2.84375 -0.1875 C 2.707031 -0.0625 2.554688 0 2.390625 0 C 2.179688 0 2.019531 -0.0625 1.90625 -0.1875 C 1.789062 -0.320312 1.734375 -0.476562 1.734375 -0.65625 L 1.734375 -10.453125 C 1.734375 -10.628906 1.789062 -10.78125 1.90625 -10.90625 C 2.03125 -11.039062 2.191406 -11.109375 2.390625 -11.109375 C 2.578125 -11.109375 2.734375 -11.039062 2.859375 -10.90625 C 2.984375 -10.78125 3.046875 -10.628906 3.046875 -10.453125 L 3.046875 -8.625 L 2.53125 -7.828125 C 2.5625 -8.296875 2.710938 -8.742188 2.984375 -9.171875 C 3.253906 -9.609375 3.597656 -9.992188 4.015625 -10.328125 C 4.441406 -10.671875 4.914062 -10.941406 5.4375 -11.140625 C 5.957031 -11.335938 6.476562 -11.4375 7 -11.4375 Z M 7 -11.4375 "/></g></g></g><g fill="#f6debe" fill-opacity="1"><g transform="translate(55.405722, 105.362663)"><g><path d="M 6.65625 -11.4375 C 7.351562 -11.4375 7.992188 -11.359375 8.578125 -11.203125 C 9.160156 -11.054688 9.628906 -10.847656 9.984375 -10.578125 C 10.335938 -10.316406 10.515625 -10.035156 10.515625 -9.734375 C 10.515625 -9.585938 10.460938 -9.441406 10.359375 -9.296875 C 10.265625 -9.160156 10.128906 -9.09375 9.953125 -9.09375 C 9.773438 -9.09375 9.628906 -9.132812 9.515625 -9.21875 C 9.410156 -9.3125 9.300781 -9.414062 9.1875 -9.53125 C 9.082031 -9.65625 8.929688 -9.765625 8.734375 -9.859375 C 8.535156 -9.953125 8.257812 -10.035156 7.90625 -10.109375 C 7.5625 -10.179688 7.164062 -10.21875 6.71875 -10.21875 C 5.894531 -10.21875 5.15625 -10.007812 4.5 -9.59375 C 3.84375 -9.1875 3.328125 -8.632812 2.953125 -7.9375 C 2.578125 -7.25 2.390625 -6.476562 2.390625 -5.625 C 2.390625 -4.75 2.570312 -3.957031 2.9375 -3.25 C 3.300781 -2.550781 3.800781 -2 4.4375 -1.59375 C 5.082031 -1.195312 5.832031 -1 6.6875 -1 C 7.269531 -1 7.722656 -1.050781 8.046875 -1.15625 C 8.367188 -1.257812 8.644531 -1.378906 8.875 -1.515625 C 9.15625 -1.671875 9.359375 -1.820312 9.484375 -1.96875 C 9.609375 -2.125 9.769531 -2.203125 9.96875 -2.203125 C 10.164062 -2.203125 10.3125 -2.144531 10.40625 -2.03125 C 10.5 -1.925781 10.546875 -1.789062 10.546875 -1.625 C 10.546875 -1.382812 10.375 -1.125 10.03125 -0.84375 C 9.6875 -0.5625 9.210938 -0.3125 8.609375 -0.09375 C 8.015625 0.113281 7.332031 0.21875 6.5625 0.21875 C 5.46875 0.21875 4.507812 -0.0351562 3.6875 -0.546875 C 2.863281 -1.054688 2.222656 -1.75 1.765625 -2.625 C 1.304688 -3.507812 1.078125 -4.507812 1.078125 -5.625 C 1.078125 -6.6875 1.304688 -7.65625 1.765625 -8.53125 C 2.234375 -9.40625 2.882812 -10.109375 3.71875 -10.640625 C 4.5625 -11.171875 5.539062 -11.4375 6.65625 -11.4375 Z M 6.65625 -11.4375 "/></g></g></g><g fill="#f6debe" fill-opacity="1"><g transform="translate(67.414048, 105.362663)"><g><path d="M 3 -0.65625 C 3 -0.476562 2.929688 -0.320312 2.796875 -0.1875 C 2.671875 -0.0625 2.519531 0 2.34375 0 C 2.15625 0 2 -0.0625 1.875 -0.1875 C 1.75 -0.320312 1.6875 -0.476562 1.6875 -0.65625 L 1.6875 -10.71875 C 1.6875 -10.894531 1.75 -11.046875 1.875 -11.171875 C 2 -11.304688 2.15625 -11.375 2.34375 -11.375 C 2.53125 -11.375 2.6875 -11.304688 2.8125 -11.171875 C 2.9375 -11.046875 3 -10.894531 3 -10.71875 Z M 2.34375 -12.84375 C 2.03125 -12.84375 1.796875 -12.910156 1.640625 -13.046875 C 1.492188 -13.191406 1.421875 -13.394531 1.421875 -13.65625 L 1.421875 -13.875 C 1.421875 -14.132812 1.503906 -14.332031 1.671875 -14.46875 C 1.835938 -14.613281 2.066406 -14.6875 2.359375 -14.6875 C 2.640625 -14.6875 2.851562 -14.613281 3 -14.46875 C 3.15625 -14.332031 3.234375 -14.132812 3.234375 -13.875 L 3.234375 -13.65625 C 3.234375 -13.394531 3.15625 -13.191406 3 -13.046875 C 2.851562 -12.910156 2.632812 -12.84375 2.34375 -12.84375 Z M 2.34375 -12.84375 "/></g></g></g><g fill="#f6debe" fill-opacity="1"><g transform="translate(72.773138, 105.362663)"><g><path d="M 6.78125 0.21875 C 5.65625 0.21875 4.660156 -0.0195312 3.796875 -0.5 C 2.941406 -0.976562 2.273438 -1.648438 1.796875 -2.515625 C 1.316406 -3.378906 1.078125 -4.382812 1.078125 -5.53125 C 1.078125 -6.769531 1.316406 -7.828125 1.796875 -8.703125 C 2.285156 -9.578125 2.921875 -10.25 3.703125 -10.71875 C 4.484375 -11.195312 5.3125 -11.4375 6.1875 -11.4375 C 6.832031 -11.4375 7.457031 -11.320312 8.0625 -11.09375 C 8.664062 -10.875 9.203125 -10.539062 9.671875 -10.09375 C 10.148438 -9.644531 10.53125 -9.097656 10.8125 -8.453125 C 11.101562 -7.816406 11.257812 -7.078125 11.28125 -6.234375 C 11.269531 -6.054688 11.195312 -5.90625 11.0625 -5.78125 C 10.9375 -5.65625 10.785156 -5.59375 10.609375 -5.59375 L 1.84375 -5.59375 L 1.578125 -6.78125 L 10.1875 -6.78125 L 9.90625 -6.515625 L 9.90625 -6.953125 C 9.851562 -7.640625 9.632812 -8.222656 9.25 -8.703125 C 8.875 -9.179688 8.414062 -9.546875 7.875 -9.796875 C 7.332031 -10.046875 6.769531 -10.171875 6.1875 -10.171875 C 5.75 -10.171875 5.300781 -10.082031 4.84375 -9.90625 C 4.382812 -9.726562 3.96875 -9.453125 3.59375 -9.078125 C 3.226562 -8.710938 2.925781 -8.238281 2.6875 -7.65625 C 2.457031 -7.082031 2.34375 -6.40625 2.34375 -5.625 C 2.34375 -4.757812 2.515625 -3.976562 2.859375 -3.28125 C 3.210938 -2.582031 3.71875 -2.023438 4.375 -1.609375 C 5.039062 -1.203125 5.835938 -1 6.765625 -1 C 7.273438 -1 7.734375 -1.070312 8.140625 -1.21875 C 8.546875 -1.363281 8.898438 -1.554688 9.203125 -1.796875 C 9.515625 -2.046875 9.769531 -2.300781 9.96875 -2.5625 C 10.132812 -2.6875 10.296875 -2.75 10.453125 -2.75 C 10.597656 -2.75 10.722656 -2.691406 10.828125 -2.578125 C 10.941406 -2.460938 11 -2.332031 11 -2.1875 C 11 -2.007812 10.925781 -1.859375 10.78125 -1.734375 C 10.34375 -1.203125 9.773438 -0.742188 9.078125 -0.359375 C 8.378906 0.0234375 7.613281 0.21875 6.78125 0.21875 Z M 6.78125 0.21875 "/></g></g></g><g fill="#f6debe" fill-opacity="1"><g transform="translate(85.809471, 105.362663)"><g><path d="M 2.390625 0 C 2.179688 0 2.019531 -0.0625 1.90625 -0.1875 C 1.789062 -0.320312 1.734375 -0.476562 1.734375 -0.65625 L 1.734375 -10.453125 C 1.734375 -10.628906 1.789062 -10.78125 1.90625 -10.90625 C 2.03125 -11.039062 2.191406 -11.109375 2.390625 -11.109375 C 2.578125 -11.109375 2.734375 -11.039062 2.859375 -10.90625 C 2.984375 -10.78125 3.046875 -10.628906 3.046875 -10.453125 L 3.046875 -7.171875 L 2.71875 -7.109375 C 2.757812 -7.617188 2.882812 -8.125 3.09375 -8.625 C 3.300781 -9.132812 3.585938 -9.597656 3.953125 -10.015625 C 4.316406 -10.441406 4.75 -10.785156 5.25 -11.046875 C 5.757812 -11.304688 6.328125 -11.4375 6.953125 -11.4375 C 7.210938 -11.4375 7.46875 -11.378906 7.71875 -11.265625 C 7.96875 -11.160156 8.09375 -10.984375 8.09375 -10.734375 C 8.09375 -10.515625 8.035156 -10.347656 7.921875 -10.234375 C 7.804688 -10.117188 7.664062 -10.0625 7.5 -10.0625 C 7.375 -10.0625 7.234375 -10.097656 7.078125 -10.171875 C 6.921875 -10.242188 6.71875 -10.28125 6.46875 -10.28125 C 6.0625 -10.28125 5.65625 -10.160156 5.25 -9.921875 C 4.84375 -9.679688 4.46875 -9.351562 4.125 -8.9375 C 3.789062 -8.53125 3.523438 -8.078125 3.328125 -7.578125 C 3.140625 -7.078125 3.046875 -6.570312 3.046875 -6.0625 L 3.046875 -0.65625 C 3.046875 -0.476562 2.976562 -0.320312 2.84375 -0.1875 C 2.707031 -0.0625 2.554688 0 2.390625 0 Z M 2.390625 0 "/></g></g></g><g fill="#f6debe" fill-opacity="1"><g transform="translate(94.908753, 105.362663)"><g><path d="M 6.390625 -11.4375 C 7.046875 -11.4375 7.648438 -11.320312 8.203125 -11.09375 C 8.753906 -10.875 9.238281 -10.582031 9.65625 -10.21875 C 10.070312 -9.863281 10.394531 -9.484375 10.625 -9.078125 C 10.863281 -8.679688 10.984375 -8.300781 10.984375 -7.9375 L 10.609375 -8.46875 L 10.609375 -10.5 C 10.609375 -10.6875 10.671875 -10.84375 10.796875 -10.96875 C 10.921875 -11.101562 11.078125 -11.171875 11.265625 -11.171875 C 11.472656 -11.171875 11.632812 -11.101562 11.75 -10.96875 C 11.863281 -10.84375 11.921875 -10.6875 11.921875 -10.5 L 11.921875 -1.03125 C 11.921875 0.132812 11.679688 1.117188 11.203125 1.921875 C 10.722656 2.722656 10.066406 3.332031 9.234375 3.75 C 8.410156 4.164062 7.476562 4.375 6.4375 4.375 C 5.925781 4.375 5.390625 4.304688 4.828125 4.171875 C 4.265625 4.046875 3.78125 3.878906 3.375 3.671875 C 2.976562 3.472656 2.757812 3.265625 2.71875 3.046875 C 2.59375 2.910156 2.535156 2.78125 2.546875 2.65625 C 2.554688 2.53125 2.617188 2.425781 2.734375 2.34375 C 2.878906 2.238281 3.03125 2.222656 3.1875 2.296875 C 3.351562 2.378906 3.597656 2.488281 3.921875 2.625 C 4.066406 2.664062 4.257812 2.726562 4.5 2.8125 C 4.75 2.90625 5.046875 2.984375 5.390625 3.046875 C 5.734375 3.117188 6.09375 3.15625 6.46875 3.15625 C 7.78125 3.15625 8.796875 2.773438 9.515625 2.015625 C 10.242188 1.265625 10.609375 0.28125 10.609375 -0.9375 L 10.609375 -3.046875 L 10.84375 -2.96875 C 10.71875 -2.445312 10.503906 -1.988281 10.203125 -1.59375 C 9.898438 -1.195312 9.546875 -0.863281 9.140625 -0.59375 C 8.734375 -0.332031 8.289062 -0.132812 7.8125 0 C 7.34375 0.144531 6.875 0.21875 6.40625 0.21875 C 5.40625 0.21875 4.503906 -0.0351562 3.703125 -0.546875 C 2.898438 -1.054688 2.257812 -1.75 1.78125 -2.625 C 1.3125 -3.5 1.078125 -4.5 1.078125 -5.625 C 1.078125 -6.726562 1.3125 -7.722656 1.78125 -8.609375 C 2.257812 -9.492188 2.894531 -10.1875 3.6875 -10.6875 C 4.476562 -11.1875 5.378906 -11.4375 6.390625 -11.4375 Z M 6.546875 -10.21875 C 5.742188 -10.21875 5.023438 -10.015625 4.390625 -9.609375 C 3.753906 -9.210938 3.253906 -8.664062 2.890625 -7.96875 C 2.535156 -7.28125 2.359375 -6.5 2.359375 -5.625 C 2.359375 -4.75 2.535156 -3.957031 2.890625 -3.25 C 3.253906 -2.550781 3.753906 -2 4.390625 -1.59375 C 5.023438 -1.195312 5.742188 -1 6.546875 -1 C 7.347656 -1 8.0625 -1.195312 8.6875 -1.59375 C 9.3125 -1.988281 9.804688 -2.53125 10.171875 -3.21875 C 10.535156 -3.914062 10.71875 -4.71875 10.71875 -5.625 C 10.71875 -6.53125 10.535156 -7.328125 10.171875 -8.015625 C 9.804688 -8.710938 9.3125 -9.253906 8.6875 -9.640625 C 8.0625 -10.023438 7.347656 -10.21875 6.546875 -10.21875 Z M 6.546875 -10.21875 "/></g></g></g><g fill="#f6debe" fill-opacity="1"><g transform="translate(109.235558, 105.362663)"><g><path d="M 6.78125 0.21875 C 5.65625 0.21875 4.660156 -0.0195312 3.796875 -0.5 C 2.941406 -0.976562 2.273438 -1.648438 1.796875 -2.515625 C 1.316406 -3.378906 1.078125 -4.382812 1.078125 -5.53125 C 1.078125 -6.769531 1.316406 -7.828125 1.796875 -8.703125 C 2.285156 -9.578125 2.921875 -10.25 3.703125 -10.71875 C 4.484375 -11.195312 5.3125 -11.4375 6.1875 -11.4375 C 6.832031 -11.4375 7.457031 -11.320312 8.0625 -11.09375 C 8.664062 -10.875 9.203125 -10.539062 9.671875 -10.09375 C 10.148438 -9.644531 10.53125 -9.097656 10.8125 -8.453125 C 11.101562 -7.816406 11.257812 -7.078125 11.28125 -6.234375 C 11.269531 -6.054688 11.195312 -5.90625 11.0625 -5.78125 C 10.9375 -5.65625 10.785156 -5.59375 10.609375 -5.59375 L 1.84375 -5.59375 L 1.578125 -6.78125 L 10.1875 -6.78125 L 9.90625 -6.515625 L 9.90625 -6.953125 C 9.851562 -7.640625 9.632812 -8.222656 9.25 -8.703125 C 8.875 -9.179688 8.414062 -9.546875 7.875 -9.796875 C 7.332031 -10.046875 6.769531 -10.171875 6.1875 -10.171875 C 5.75 -10.171875 5.300781 -10.082031 4.84375 -9.90625 C 4.382812 -9.726562 3.96875 -9.453125 3.59375 -9.078125 C 3.226562 -8.710938 2.925781 -8.238281 2.6875 -7.65625 C 2.457031 -7.082031 2.34375 -6.40625 2.34375 -5.625 C 2.34375 -4.757812 2.515625 -3.976562 2.859375 -3.28125 C 3.210938 -2.582031 3.71875 -2.023438 4.375 -1.609375 C 5.039062 -1.203125 5.835938 -1 6.765625 -1 C 7.273438 -1 7.734375 -1.070312 8.140625 -1.21875 C 8.546875 -1.363281 8.898438 -1.554688 9.203125 -1.796875 C 9.515625 -2.046875 9.769531 -2.300781 9.96875 -2.5625 C 10.132812 -2.6875 10.296875 -2.75 10.453125 -2.75 C 10.597656 -2.75 10.722656 -2.691406 10.828125 -2.578125 C 10.941406 -2.460938 11 -2.332031 11 -2.1875 C 11 -2.007812 10.925781 -1.859375 10.78125 -1.734375 C 10.34375 -1.203125 9.773438 -0.742188 9.078125 -0.359375 C 8.378906 0.0234375 7.613281 0.21875 6.78125 0.21875 Z M 6.78125 0.21875 "/></g></g></g><g fill="#f6debe" fill-opacity="1"><g transform="translate(122.271887, 105.362663)"><g><path d="M 2.390625 0 C 2.179688 0 2.019531 -0.0625 1.90625 -0.1875 C 1.789062 -0.320312 1.734375 -0.476562 1.734375 -0.65625 L 1.734375 -10.453125 C 1.734375 -10.628906 1.789062 -10.78125 1.90625 -10.90625 C 2.03125 -11.039062 2.191406 -11.109375 2.390625 -11.109375 C 2.578125 -11.109375 2.734375 -11.039062 2.859375 -10.90625 C 2.984375 -10.78125 3.046875 -10.628906 3.046875 -10.453125 L 3.046875 -7.171875 L 2.71875 -7.109375 C 2.757812 -7.617188 2.882812 -8.125 3.09375 -8.625 C 3.300781 -9.132812 3.585938 -9.597656 3.953125 -10.015625 C 4.316406 -10.441406 4.75 -10.785156 5.25 -11.046875 C 5.757812 -11.304688 6.328125 -11.4375 6.953125 -11.4375 C 7.210938 -11.4375 7.46875 -11.378906 7.71875 -11.265625 C 7.96875 -11.160156 8.09375 -10.984375 8.09375 -10.734375 C 8.09375 -10.515625 8.035156 -10.347656 7.921875 -10.234375 C 7.804688 -10.117188 7.664062 -10.0625 7.5 -10.0625 C 7.375 -10.0625 7.234375 -10.097656 7.078125 -10.171875 C 6.921875 -10.242188 6.71875 -10.28125 6.46875 -10.28125 C 6.0625 -10.28125 5.65625 -10.160156 5.25 -9.921875 C 4.84375 -9.679688 4.46875 -9.351562 4.125 -8.9375 C 3.789062 -8.53125 3.523438 -8.078125 3.328125 -7.578125 C 3.140625 -7.078125 3.046875 -6.570312 3.046875 -6.0625 L 3.046875 -0.65625 C 3.046875 -0.476562 2.976562 -0.320312 2.84375 -0.1875 C 2.707031 -0.0625 2.554688 0 2.390625 0 Z M 2.390625 0 "/></g></g></g><g fill="#f6debe" fill-opacity="1"><g transform="translate(131.371173, 105.362663)"><g><path d="M 3 -0.65625 C 3 -0.476562 2.929688 -0.320312 2.796875 -0.1875 C 2.671875 -0.0625 2.519531 0 2.34375 0 C 2.15625 0 2 -0.0625 1.875 -0.1875 C 1.75 -0.320312 1.6875 -0.476562 1.6875 -0.65625 L 1.6875 -10.71875 C 1.6875 -10.894531 1.75 -11.046875 1.875 -11.171875 C 2 -11.304688 2.15625 -11.375 2.34375 -11.375 C 2.53125 -11.375 2.6875 -11.304688 2.8125 -11.171875 C 2.9375 -11.046875 3 -10.894531 3 -10.71875 Z M 2.34375 -12.84375 C 2.03125 -12.84375 1.796875 -12.910156 1.640625 -13.046875 C 1.492188 -13.191406 1.421875 -13.394531 1.421875 -13.65625 L 1.421875 -13.875 C 1.421875 -14.132812 1.503906 -14.332031 1.671875 -14.46875 C 1.835938 -14.613281 2.066406 -14.6875 2.359375 -14.6875 C 2.640625 -14.6875 2.851562 -14.613281 3 -14.46875 C 3.15625 -14.332031 3.234375 -14.132812 3.234375 -13.875 L 3.234375 -13.65625 C 3.234375 -13.394531 3.15625 -13.191406 3 -13.046875 C 2.851562 -12.910156 2.632812 -12.84375 2.34375 -12.84375 Z M 2.34375 -12.84375 "/></g></g></g><g fill="#f6debe" fill-opacity="1"><g transform="translate(136.730259, 105.362663)"><g><path d="M 6.78125 0.21875 C 5.65625 0.21875 4.660156 -0.0195312 3.796875 -0.5 C 2.941406 -0.976562 2.273438 -1.648438 1.796875 -2.515625 C 1.316406 -3.378906 1.078125 -4.382812 1.078125 -5.53125 C 1.078125 -6.769531 1.316406 -7.828125 1.796875 -8.703125 C 2.285156 -9.578125 2.921875 -10.25 3.703125 -10.71875 C 4.484375 -11.195312 5.3125 -11.4375 6.1875 -11.4375 C 6.832031 -11.4375 7.457031 -11.320312 8.0625 -11.09375 C 8.664062 -10.875 9.203125 -10.539062 9.671875 -10.09375 C 10.148438 -9.644531 10.53125 -9.097656 10.8125 -8.453125 C 11.101562 -7.816406 11.257812 -7.078125 11.28125 -6.234375 C 11.269531 -6.054688 11.195312 -5.90625 11.0625 -5.78125 C 10.9375 -5.65625 10.785156 -5.59375 10.609375 -5.59375 L 1.84375 -5.59375 L 1.578125 -6.78125 L 10.1875 -6.78125 L 9.90625 -6.515625 L 9.90625 -6.953125 C 9.851562 -7.640625 9.632812 -8.222656 9.25 -8.703125 C 8.875 -9.179688 8.414062 -9.546875 7.875 -9.796875 C 7.332031 -10.046875 6.769531 -10.171875 6.1875 -10.171875 C 5.75 -10.171875 5.300781 -10.082031 4.84375 -9.90625 C 4.382812 -9.726562 3.96875 -9.453125 3.59375 -9.078125 C 3.226562 -8.710938 2.925781 -8.238281 2.6875 -7.65625 C 2.457031 -7.082031 2.34375 -6.40625 2.34375 -5.625 C 2.34375 -4.757812 2.515625 -3.976562 2.859375 -3.28125 C 3.210938 -2.582031 3.71875 -2.023438 4.375 -1.609375 C 5.039062 -1.203125 5.835938 -1 6.765625 -1 C 7.273438 -1 7.734375 -1.070312 8.140625 -1.21875 C 8.546875 -1.363281 8.898438 -1.554688 9.203125 -1.796875 C 9.515625 -2.046875 9.769531 -2.300781 9.96875 -2.5625 C 10.132812 -2.6875 10.296875 -2.75 10.453125 -2.75 C 10.597656 -2.75 10.722656 -2.691406 10.828125 -2.578125 C 10.941406 -2.460938 11 -2.332031 11 -2.1875 C 11 -2.007812 10.925781 -1.859375 10.78125 -1.734375 C 10.34375 -1.203125 9.773438 -0.742188 9.078125 -0.359375 C 8.378906 0.0234375 7.613281 0.21875 6.78125 0.21875 Z M 6.78125 0.21875 "/></g></g></g><g fill="#f6debe" fill-opacity="1"><g transform="translate(149.773182, 105.362663)"><g/></g></g><g clip-path="url(#d8be3b66dc)"><g clip-path="url(#3dbe6da07f)"><path stroke-linecap="butt" transform="matrix(2.015512, 0, 0, 2.015512, 152.464344, 27.996411)" fill="none" stroke-linejoin="miter" d="M 5.054793 -0.000157398 C 2.26394 -0.000157398 0.000247759 2.263535 0.000247759 5.054388 C 0.000247759 7.84718 2.26394 10.108934 5.054793 10.108934 C 7.845647 10.108934 10.109339 7.84718 10.109339 5.054388 C 10.109339 2.263535 7.845647 -0.000157398 5.054793 -0.000157398 Z M 5.054793 -0.000157398 " stroke="#ffffff" stroke-width="5.209593" stroke-opacity="1" stroke-miterlimit="4"/></g></g></svg>